<?xml version="1.0" standalone="no"?>
<!DOCTYPE svg PUBLIC "-//W3C//DTD SVG 1.1//EN" "http://www.w3.org/Graphics/SVG/1.1/DTD/svg11.dtd" >
<svg xmlns="http://www.w3.org/2000/svg">
<metadata>
This is a custom SVG webfont generated by Font Squirrel.
Copyright   : Copyright 2007 Paul Barnes and Christian Schwartz All Rights Reserved
Designer    : Paul Barnes and Christian Schwartz
Foundry     : Schwartzco Inc
Foundry URL : httpwwwchristianschwartzcom
</metadata>
<defs>
<font id="PublicoBlack" horiz-adv-x="1331" >
<font-face units-per-em="2048" ascent="1638" descent="-410" />
<missing-glyph horiz-adv-x="438" />
<glyph unicode=" "  horiz-adv-x="438" />
<glyph unicode="&#x09;" horiz-adv-x="438" />
<glyph unicode="&#xa0;" horiz-adv-x="438" />
<glyph unicode="!" horiz-adv-x="614" d="M92 1106q-19 70 -19 126q0 76 36 124q61 84 196 84t198 -84q36 -49 36 -125q0 -55 -19 -125l-178 -643h-72zM113 176q0 82 56 137.5t136 55.5q78 0 137.5 -55.5t59.5 -137.5q0 -76 -59.5 -134t-137.5 -58q-80 0 -136 57t-56 135z" />
<glyph unicode="&#x22;" horiz-adv-x="858" d="M90 1217q-22 57 -21 100q0 47 25 78q49 59 143.5 59t142.5 -59q25 -31 25 -78q0 -44 -22 -100l-121 -324h-49zM475 1217q-22 57 -21 100q0 47 25 78q49 59 143.5 59t142.5 -59q25 -31 25 -78q0 -44 -22 -100l-121 -324h-49z" />
<glyph unicode="#" horiz-adv-x="1071" d="M59 350l47 254h185l39 217h-183l48 254h184l61 344h123l-63 -344h223l61 344h123l-61 -344h182l-47 -254h-184l-39 -217h186l-47 -254h-186l-64 -350h-123l64 350h-221l-64 -350h-123l64 350h-185zM414 604h221l39 217h-221z" />
<glyph unicode="$" horiz-adv-x="1105" d="M16 236q0 150 162 149q88 0 132 -43t57 -174q4 -61 25.5 -84t82.5 -27v473q-240 86 -335 201t-95 268q0 184 126 302t337 139v135h98v-131q233 -2 341 -76t108 -182q0 -66 -47 -108t-117 -42q-100 0 -142 51.5t-55 180.5q-4 51 -22.5 71.5t-65.5 26.5v-442 q266 -100 365.5 -212t99.5 -290q0 -164 -136 -296t-362 -149v-202h-98v202q-459 9 -459 259zM344 1177.5q0 -75.5 36 -126t128 -90.5v403q-76 -10 -120 -60.5t-44 -126zM573 59q78 12 124 65.5t46 141.5q0 154 -170 230v-437z" />
<glyph unicode="%" horiz-adv-x="1662" d="M47 1065q0 98 39 175t101.5 120t127 63.5t127.5 20.5q160 0 276 -98.5t116 -270.5q0 -182 -120 -278.5t-280 -96.5q-168 0 -277.5 94.5t-109.5 270.5zM186 -102l1100 1564h144l-1100 -1564h-144zM328 1077q0 -188 21.5 -243.5t91 -55.5t91 55.5t21.5 229.5 q0 133 -11.5 198.5t-34 85t-67.5 19.5q-61 0 -86.5 -54.5t-25.5 -234.5zM829 340q0 98 39 175t101.5 120t127 63.5t128.5 20.5q160 0 275.5 -98.5t115.5 -270.5q0 -182 -120 -278.5t-279 -96.5q-168 0 -278 94.5t-110 270.5zM1110 352q0 -188 21.5 -243.5t91 -55.5t91 55.5 t21.5 229.5q0 133 -11 198.5t-33.5 85t-67.5 19.5q-61 0 -87 -54.5t-26 -234.5z" />
<glyph unicode="&#x26;" horiz-adv-x="1566" d="M23 360q0 139 99 236.5t257 146.5q-82 143 -82 279q0 174 135 298t338 124q182 0 285.5 -80t103.5 -197q0 -113 -105.5 -199.5t-252.5 -142.5q195 -256 321 -401q72 119 72 207q0 63 -72 86l-55 16v68h483v-68l-43 -12q-66 -18 -119 -73.5t-128 -178.5q-57 -92 -74 -115 q76 -84 174 -182q82 -78 137 -90l45 -14v-68h-555l-78 74q-139 -98 -348 -99q-258 0 -398 105.5t-140 279.5zM391 444q0 -166 81 -256t204 -90q94 0 168 43q-244 258 -420 531q-33 -78 -33 -228zM639 1186q0 -84 27.5 -148.5t91.5 -152.5q147 102 147 282q0 90 -34.5 142.5 t-98.5 52.5q-61 0 -97 -45t-36 -131z" />
<glyph unicode="'" horiz-adv-x="464" d="M86 1217q-22 57 -22 100q0 47 26 78q49 59 143.5 59t142.5 -59q25 -31 25 -78q0 -44 -22 -100l-121 -324h-49z" />
<glyph unicode="(" horiz-adv-x="663" d="M61 618q0 154 51.5 302.5t135.5 263t173 199.5t179 143l43 -41q-141 -125 -224 -344t-83 -482q0 -324 78 -531.5t229 -375.5l-43 -41q-94 59 -180 137t-171 190t-136.5 262t-51.5 318z" />
<glyph unicode=")" horiz-adv-x="663" d="M20 -248q152 168 230 376t78 531q0 262 -83 481.5t-225 344.5l43 41q90 -57 179.5 -142.5t173.5 -200t135 -263t51 -302.5q0 -168 -51 -318t-136 -262t-171 -189.5t-181 -137.5z" />
<glyph unicode="*" horiz-adv-x="759" d="M39 1210q16 57 66 71q9 2 20 2q45 0 108 -48l119 -107l-63 146q-18 50 -18 85q0 30 13 50q28 43 89 43q59 0 87 -43q13 -20 12 -50q0 -36 -17 -85l-64 -146l119 105q64 49 108 48q10 0 19 -2q49 -13 68 -71q6 -20 6 -38q0 -34 -23 -63q-27 -34 -88 -34q-17 0 -37 2 l-162 17l140 -82q53 -31 71 -70q11 -23 11 -44q0 -14 -5 -26q-12 -31 -40 -53q-27 -23 -59 -23q-19 0 -41 9q-56 23 -75 108l-32 158l-35 -156q-12 -59 -44 -90q-29 -28 -59 -28q-3 0 -6 1q-33 3 -63 19q-23 16 -35 40t-12 49.5t21.5 54t62.5 53.5l139 80l-160 -15 q-17 -2 -32 -2q-64 0 -93 35q-23 28 -22 62q0 18 6 38z" />
<glyph unicode="+" horiz-adv-x="997" d="M78 662v129h348v362h145v-362h349v-129h-349v-363h-145v363h-348z" />
<glyph unicode="," horiz-adv-x="495" d="M25 -180q244 106 237 248q-23 -23 -69 -23q-63 0 -103.5 42t-40.5 118q0 74 54.5 119t132.5 45q88 0 148 -58.5t60 -167.5q0 -143 -106.5 -241.5t-296.5 -134.5z" />
<glyph unicode="-" horiz-adv-x="571" d="M37 473l29 234h469l-31 -234h-467z" />
<glyph unicode="." horiz-adv-x="491" d="M51 176q0 82 56.5 137.5t136.5 55.5q78 0 137 -55.5t59 -137.5q0 -76 -59 -134t-137 -58q-80 0 -136.5 57t-56.5 135z" />
<glyph unicode="/" horiz-adv-x="804" d="M0 -266l647 1769h127l-647 -1769h-127z" />
<glyph unicode="0" horiz-adv-x="1478" d="M68 694q0 158 45 289t114.5 214t160.5 140.5t180 82t175 24.5q272 0 470 -192.5t198 -536.5q0 -186 -60.5 -332.5t-159.5 -233t-217 -130.5t-245 -44q-289 0 -475 185.5t-186 533.5zM535 721q0 -279 19 -420t61 -190.5t124 -49.5q123 0 164 125t41 502q0 291 -23.5 437.5 t-63.5 189.5t-118 43q-53 0 -85.5 -20.5t-62.5 -84t-43 -194.5t-13 -338z" />
<glyph unicode="1" horiz-adv-x="864" d="M33 0v68l69 14q68 14 85.5 38.5t17.5 125.5v809l-166 20v76q162 33 315.5 109.5t237.5 177.5l67 -17v-1175q0 -98 18.5 -125t84.5 -39l69 -14v-68h-798z" />
<glyph unicode="2" horiz-adv-x="1128" d="M27 0v197q244 190 430 399q100 113 144 223.5t44 267.5q0 150 -37 210.5t-116 60.5q-49 0 -65.5 -20.5t-18.5 -82.5q-4 -145 -51.5 -195t-157.5 -50q-164 0 -164 153q0 119 129 200t368 81q256 0 407 -106.5t151 -309.5q0 -199 -206 -369t-575 -340v-12h520 q72 0 97.5 25.5t72.5 136.5h72l-29 -469h-1015z" />
<glyph unicode="3" horiz-adv-x="1159" d="M25 236q0 150 161 149q92 0 135.5 -45t53.5 -182q4 -59 25.5 -78t80.5 -19q100 0 137 83t37 259.5t-54 231.5t-181 55h-94v98h77q127 0 179.5 62.5t52.5 228.5q0 279 -141 279q-35 0 -51.5 -14.5t-18.5 -49.5q-14 -141 -49 -186t-142 -45q-156 0 -155 137 q0 113 123 178.5t340 65.5q236 0 378 -88t142 -252q0 -119 -99.5 -211t-295.5 -127v-8q201 -12 327.5 -101.5t126.5 -263.5q0 -190 -157.5 -304t-462.5 -114q-475 1 -475 261z" />
<glyph unicode="4" horiz-adv-x="1251" d="M20 385v127l713 907h291v-868h203l-21 -166h-182v-139q0 -98 18.5 -125t81.5 -39l68 -14v-68h-766v68l61 14q66 14 83.5 38.5t17.5 125.5v139h-568zM190 551h398v504h-6l-392 -494v-10z" />
<glyph unicode="5" horiz-adv-x="1110" d="M31 227q0 68 42 105t120 37q96 0 137 -46.5t47 -181.5q2 -49 23.5 -64.5t82.5 -15.5q98 0 154.5 66t56.5 199q0 274 -323 274q-145 0 -221 -29l-27 19l88 829h606q51 0 72.5 18.5t60.5 92.5h72l-41 -410h-690l-21 -217q98 31 250 31q258 0 406.5 -121t148.5 -342 q0 -209 -162.5 -352.5t-455.5 -143.5q-211 0 -318.5 70.5t-107.5 181.5z" />
<glyph unicode="6" horiz-adv-x="1284" d="M39 662q0 205 64.5 360.5t174 244.5t240.5 133t279 44q182 0 284.5 -58.5t102.5 -158.5q0 -145 -170 -146q-96 0 -135 43t-45 156q-2 47 -19.5 62.5t-64.5 15.5q-119 0 -181.5 -132t-68.5 -454q139 82 288 82q215 0 337 -101.5t122 -306.5q0 -211 -153.5 -341 t-446.5 -130q-123 0 -227.5 38t-192.5 116t-138 215.5t-50 317.5zM498 641q0 -250 15 -375t47 -165t95 -40q90 0 117 76t27 295q0 170 -42 228.5t-143 58.5q-51 0 -116 -31v-47z" />
<glyph unicode="7" horiz-adv-x="1079" d="M35 934l37 485h987v-190q-207 -270 -285 -558t-86 -671h-485q66 330 238.5 594t451.5 520h-619q-70 0 -95 -27.5t-75 -152.5h-69z" />
<glyph unicode="8" horiz-adv-x="1208" d="M35 322q0 205 311 313v8q-254 129 -254 375q0 195 161 310.5t374 115.5q205 0 346 -83t141 -245q0 -84 -78 -155.5t-192 -114.5v-8q170 -78 250 -177.5t80 -238.5q0 -184 -170 -315.5t-414 -131.5q-262 0 -408.5 92.5t-146.5 254.5zM346 350q0 -143 60.5 -212.5 t203.5 -69.5q106 0 178 50t72 148q0 100 -79 157.5t-361 176.5q-74 -111 -74 -250zM395 1174q0 -88 75 -148.5t284 -142.5q70 92 69 225q0 127 -53 185.5t-164 58.5q-94 0 -152.5 -48t-58.5 -130z" />
<glyph unicode="9" horiz-adv-x="1282" d="M37 975q0 209 154.5 338t443.5 129q129 0 235.5 -38t191.5 -117t133 -214t48 -317q0 -387 -207 -585t-540 -198q-190 0 -298 60.5t-108 165.5q0 145 178 145q84 0 124 -45t54 -160q6 -47 24.5 -63.5t66.5 -16.5q133 0 186 125t59 455q-158 -84 -297 -84 q-211 0 -329.5 105.5t-118.5 314.5zM485 991q0 -172 40 -234.5t132 -62.5q53 0 127 31v53q0 250 -15 375t-47 165t-95 40q-84 0 -113 -78t-29 -289z" />
<glyph unicode=":" horiz-adv-x="503" d="M57 176q0 80 57.5 136.5t137.5 56.5t137 -56.5t57 -136.5t-57 -136t-137 -56t-137.5 56t-57.5 136zM57 737q0 80 57.5 136.5t137.5 56.5t137 -56.5t57 -136.5t-57 -136t-137 -56t-137.5 56t-57.5 136z" />
<glyph unicode=";" horiz-adv-x="507" d="M33 -180q244 106 237 248q-23 -23 -69 -23q-63 0 -103.5 42t-40.5 118q0 74 54.5 119t132.5 45q88 0 148.5 -58.5t60.5 -167.5q0 -143 -106.5 -241.5t-297.5 -134.5zM57 737q0 80 57.5 136.5t137.5 56.5t137 -56.5t57 -136.5t-57 -136t-137 -56t-137.5 56t-57.5 136z" />
<glyph unicode="&#x3c;" horiz-adv-x="997" d="M78 575v130l842 378v-143l-697 -299l697 -297v-147z" />
<glyph unicode="=" horiz-adv-x="1120" d="M78 498v129h964v-129h-964zM78 805v129h964v-129h-964z" />
<glyph unicode="&#x3e;" horiz-adv-x="997" d="M78 197v147l696 297l-696 299v143l842 -378v-130z" />
<glyph unicode="?" horiz-adv-x="1021" d="M25 1206q0 111 120.5 174.5t333.5 63.5q236 0 361 -103.5t125 -273.5q0 -201 -146.5 -319.5t-388.5 -151.5v-133h-121v360q61 16 97 32.5t78 48.5t61.5 87.5t19.5 132.5q0 227 -127 228q-33 0 -41 -15.5t-16 -72.5q-14 -104 -62.5 -151.5t-142.5 -47.5q-72 0 -111.5 41 t-39.5 100zM180 176q0 82 56.5 137.5t136.5 55.5q78 0 137 -55.5t59 -137.5q0 -76 -59 -134t-137 -58q-80 0 -136.5 57t-56.5 135z" />
<glyph unicode="@" horiz-adv-x="1865" d="M43 453q0 254 134 471t355.5 339.5t473.5 122.5q371 0 594 -182t223 -481q0 -164 -51.5 -294t-135.5 -209t-184 -120t-207 -41q-141 0 -197.5 49.5t-62.5 131.5h-6q-49 -76 -129 -126.5t-172 -50.5q-115 0 -178.5 80t-63.5 238q0 266 175 455.5t405 189.5q164 0 289 -90 h6l112 78l35 -17q-23 -49 -59 -239l-78 -404q-11 -55 -11 -92q0 -31 7 -51q16 -45 78 -45q100 0 179 135t79 367q0 281 -175 460t-477 179q-195 0 -363.5 -90.5t-280 -278.5t-111.5 -442q0 -332 172 -524.5t516 -192.5q287 0 508 110v-75q-84 -47 -235.5 -86t-313.5 -39 q-379 0 -614.5 198.5t-235.5 565.5zM774 395q0 -141 88 -141q14 0 26.5 4t19.5 8t18 17l14 17q4 5 16.5 25.5t16.5 26.5l98 535q-25 57 -72 57q-84 0 -154.5 -178t-70.5 -371z" />
<glyph unicode="A" horiz-adv-x="1466" d="M-4 0v68l45 14q49 16 74.5 51t68.5 154l412 1132h254l422 -1130q45 -119 70.5 -158t72.5 -53l37 -10v-68h-770v68l57 14q76 20 76 88q0 43 -41 158l-31 92h-387l-30 -94q-35 -100 -35 -148q0 -45 19.5 -62.5t76.5 -33.5l51 -14v-68h-442zM391 522h318l-154 459h-10z" />
<glyph unicode="B" horiz-adv-x="1409" d="M25 0v68l57 14q57 14 73.5 39.5t16.5 124.5v928q0 98 -16.5 123.5t-73.5 39.5l-57 15v67h710q305 0 441.5 -81t136.5 -257q0 -258 -393 -311v-12q231 -31 343.5 -112t112.5 -247q0 -399 -575 -399h-776zM621 219q0 -74 23.5 -96.5t100.5 -22.5q86 0 125 64.5t39 247.5 q0 170 -46 228t-163 58h-79v-479zM621 795h71q115 0 151 52t36 204q0 160 -38 214t-126 54q-51 0 -94 -14v-510z" />
<glyph unicode="C" horiz-adv-x="1292" d="M45 698q0 188 62.5 334t171 234t244.5 133t292 45q229 0 393 -47l27 -434h-72q-98 184 -182 290q-43 55 -85 77t-103 22q-154 0 -211.5 -138.5t-57.5 -474.5q0 -270 31 -417.5t90.5 -200.5t163.5 -53q63 0 109.5 26.5t97.5 91.5q80 109 168 301h69l-24 -432 q-213 -80 -447 -80q-332 0 -534.5 189.5t-202.5 533.5z" />
<glyph unicode="D" horiz-adv-x="1542" d="M25 0v68l57 14q57 14 73.5 39.5t16.5 124.5v928q0 98 -16.5 123.5t-73.5 39.5l-57 15v67h747q346 0 535.5 -170t189.5 -508q0 -344 -194.5 -542.5t-538.5 -198.5h-739zM627 287q0 -115 23.5 -150t88.5 -35q141 0 212 138.5t71 447.5q0 244 -35 385t-95.5 192.5 t-156.5 51.5q-80 0 -108 -19v-1011z" />
<glyph unicode="E" horiz-adv-x="1306" d="M25 0v68l57 14q57 14 73.5 39.5t16.5 124.5v928q0 98 -16.5 123.5t-73.5 39.5l-57 15v67h1183l19 -440h-72q-63 143 -127 231q-51 70 -97 88.5t-147 18.5q-86 0 -157 -21v-512h26q94 0 128 13.5t53 46.5q43 70 69 157h70v-544h-70q-25 86 -69 170q-18 37 -50 48t-133 11 h-24v-401q0 -125 25.5 -154t150.5 -29q115 0 160 25t102 113q53 80 139 280h74l-29 -520h-1224z" />
<glyph unicode="F" horiz-adv-x="1251" d="M25 0v68l57 14q57 14 73.5 39.5t16.5 124.5v928q0 98 -16.5 123.5t-73.5 39.5l-57 15v67h1175l21 -446h-72q-61 133 -129 231q-49 70 -91 92.5t-141 22.5q-104 0 -161 -21v-534h22q100 0 133 12t56 49q41 68 67 170h70v-571h-70q-33 113 -67 172q-29 45 -59.5 57.5 t-131.5 12.5h-20v-420q0 -100 15 -125t79 -37l78 -16v-68h-774z" />
<glyph unicode="G" horiz-adv-x="1437" d="M45 707q0 190 64.5 334.5t179 231.5t260 129t319.5 42q223 0 381 -51l19 -443h-72q-72 141 -172 285q-47 70 -91 93.5t-114 23.5q-162 0 -230.5 -145.5t-68.5 -473.5q0 -387 55.5 -526t217.5 -139q59 0 108 34v310q0 98 -16.5 123.5t-73.5 39.5l-57 15v67h684v-67 l-41 -12q-47 -14 -58.5 -39t-11.5 -127v-351q-92 -37 -245.5 -61.5t-274.5 -24.5q-379 0 -570.5 190t-191.5 542z" />
<glyph unicode="H" horiz-adv-x="1630" d="M25 0v68l57 14q57 14 73.5 39.5t16.5 124.5v928q0 98 -16.5 123.5t-73.5 39.5l-57 15v67h743v-67l-51 -15q-59 -16 -74.5 -40.5t-15.5 -122.5v-394h377v394q0 98 -15.5 122.5t-75.5 40.5l-51 15v67h744v-67l-58 -15q-57 -14 -73.5 -39.5t-16.5 -123.5v-928 q0 -98 16.5 -124t73.5 -40l58 -14v-68h-744v68l51 14q59 16 75 40.5t16 123.5v428h-377v-428q0 -98 15 -123t75 -41l51 -14v-68h-743z" />
<glyph unicode="I" horiz-adv-x="811" d="M25 0v68l63 14q57 12 73.5 38.5t16.5 125.5v928q0 98 -16.5 124.5t-73.5 38.5l-63 15v67h761v-67l-63 -15q-57 -12 -73.5 -38.5t-16.5 -124.5v-928q0 -98 16.5 -125t73.5 -39l63 -14v-68h-761z" />
<glyph unicode="J" horiz-adv-x="798" d="M-279 -190q0 72 43 112.5t117 40.5q88 0 131 -47t64 -178q8 -49 30 -49q66 0 66 139v1346q0 98 -16.5 123.5t-73.5 39.5l-57 15v67h749v-67l-57 -15q-57 -14 -73.5 -39.5t-16.5 -123.5v-1037q0 -240 -157 -389t-417 -149q-162 0 -247 58.5t-85 152.5z" />
<glyph unicode="K" horiz-adv-x="1562" d="M25 0v68l57 14q57 14 73.5 39.5t16.5 124.5v928q0 98 -16.5 123.5t-73.5 39.5l-57 15v67h743v-67l-51 -15q-59 -16 -74.5 -40.5t-15.5 -122.5v-928q0 -98 15 -123t75 -41l51 -14v-68h-743zM668 657v41l327 377q90 100 90 180q0 59 -65 80l-55 17v67h522v-67l-43 -13 q-59 -16 -101.5 -50t-132.5 -136l-213 -242q190 -414 437 -776q29 -43 65 -53l55 -14v-68h-538q-194 301 -348 657z" />
<glyph unicode="L" horiz-adv-x="1275" d="M25 0v68l57 14q57 14 73.5 39.5t16.5 124.5v928q0 98 -16.5 123.5t-73.5 39.5l-57 15v67h761v-67l-69 -15q-59 -12 -74.5 -37.5t-15.5 -125.5v-900q0 -117 23.5 -145.5t131.5 -28.5q113 0 158 25t94 104q76 125 154 306h74l-37 -535h-1200z" />
<glyph unicode="M" horiz-adv-x="1853" d="M25 0v68l57 14q57 14 73.5 43t16.5 141v908q0 98 -16.5 123.5t-73.5 39.5l-57 15v67h663l240 -739h8l238 739h655v-67l-57 -15q-57 -14 -74 -39.5t-17 -123.5v-928q0 -98 16.5 -124t74.5 -40l57 -14v-68h-750v68l58 14q57 14 73.5 39.5t16.5 124.5v958h-8l-373 -1173 h-158l-389 1173h-8v-923q0 -123 15.5 -153t82.5 -46l57 -14v-68h-421z" />
<glyph unicode="N" horiz-adv-x="1454" d="M25 0v68l57 14q57 14 73.5 43t16.5 141v908q0 98 -16.5 123.5t-73.5 39.5l-57 15v67h622l504 -710h8v430q0 88 -8 123.5t-25.5 48t-70.5 24.5l-70 17v67h440v-67l-57 -15q-57 -14 -73.5 -42.5t-16.5 -141.5v-1153h-174l-805 1147h-8v-866q0 -88 8 -125t26.5 -49.5 t69.5 -24.5l66 -14v-68h-436z" />
<glyph unicode="O" horiz-adv-x="1531" d="M45 692q0 195 66.5 345.5t176 236.5t232.5 128t252 42q139 0 262 -39t227.5 -120t165 -224t60.5 -334q0 -197 -66.5 -347.5t-176 -235.5t-232.5 -127t-252 -42q-137 0 -262 43t-227.5 126t-164 225.5t-61.5 322.5zM520 741q0 -276 26.5 -422.5t77 -198.5t144.5 -52 q88 0 138 46t78 181t28 383q0 276 -28 424.5t-79 199t-141 50.5q-84 0 -134 -45t-80 -182.5t-30 -383.5z" />
<glyph unicode="P" horiz-adv-x="1400" d="M25 0v68l57 14q57 14 73.5 39.5t16.5 124.5v928q0 98 -16.5 123.5t-73.5 39.5l-57 15v67h729q307 0 458.5 -102.5t151.5 -325.5q0 -180 -133 -309t-377 -129q-84 0 -170 29v71q129 8 174 71.5t45 254.5q0 205 -38 272.5t-142 67.5q-57 0 -96 -16v-1057q0 -96 15 -120 t79 -40l72 -18v-68h-768z" />
<glyph unicode="Q" horiz-adv-x="1531" d="M45 692q0 195 66.5 345.5t176 236.5t232.5 128t252 42q139 0 262 -39t227.5 -120t165 -224t60.5 -334q0 -285 -130 -446.5t-337 -225.5v-6q94 -90 190 -153q115 -76 211 -76q78 0 183 47v-64q-145 -166 -392 -165q-123 0 -218 33.5t-201 109.5q-170 125 -289 244 q-205 66 -332 232.5t-127 434.5zM520 741q0 -276 26.5 -424.5t78 -202t143.5 -53.5q88 0 138 48.5t78 184.5t28 384q0 276 -28 424.5t-79 199t-141 50.5q-84 0 -134 -45t-80 -182.5t-30 -383.5z" />
<glyph unicode="R" horiz-adv-x="1523" d="M25 0v68l57 14q57 14 73.5 39.5t16.5 124.5v928q0 98 -16.5 123.5t-73.5 39.5l-57 15v67h718q332 0 480.5 -94t148.5 -289q0 -141 -59.5 -219t-192.5 -119v-8q125 -307 305 -565q6 -8 11.5 -14.5t8.5 -9.5t11 -7t11 -5l16 -5l18 -6l29 -10v-68h-533q-68 98 -153.5 279.5 t-132.5 318.5q-53 0 -86 4v-356q0 -98 15 -125t69 -39l57 -14v-68h-741zM625 694q49 -6 86 -6q109 0 156.5 67.5t47.5 248.5q0 178 -36.5 246.5t-145.5 68.5q-76 0 -108 -14v-611z" />
<glyph unicode="S" horiz-adv-x="1105" d="M45 446h74q90 -164 168 -262q55 -70 103 -93t126 -23q98 0 152.5 54t54.5 144q0 86 -58.5 143.5t-224.5 116.5q-227 80 -311 189.5t-84 279.5q0 201 149.5 325t391 124t375.5 -53l20 -357h-72q-82 145 -164 234q-45 49 -81.5 66.5t-106.5 17.5q-96 0 -145.5 -46 t-49.5 -128q0 -80 50.5 -129.5t220.5 -108.5q242 -84 340 -192.5t98 -276.5q0 -211 -154.5 -353.5t-414.5 -142.5q-283 0 -432 64z" />
<glyph unicode="T" horiz-adv-x="1339" d="M23 915l16 504h1261l17 -504h-74q-113 248 -166 316q-45 55 -74.5 70.5t-95.5 15.5h-10v-1071q0 -102 15.5 -126t80.5 -38l64 -14v-68h-774v68l63 14q66 14 81 37.5t15 126.5v1071h-10q-59 0 -93 -17.5t-75 -68.5q-51 -66 -168 -316h-73z" />
<glyph unicode="U" horiz-adv-x="1468" d="M20 1352v67h750v-67l-57 -15q-57 -14 -73.5 -39.5t-16.5 -123.5v-775q0 -145 65.5 -208.5t224.5 -63.5q272 0 273 307v705q0 88 -8.5 123.5t-25.5 48t-71 24.5l-69 17v67h436v-67l-57 -15q-39 -10 -53.5 -20t-23.5 -47t-9 -117v-735q0 -199 -129 -321t-379 -122 q-629 0 -629 478v721q0 98 -16.5 123.5t-73.5 39.5z" />
<glyph unicode="V" horiz-adv-x="1427" d="M-6 1352v67h768v-67l-57 -15q-72 -18 -72 -86q0 -33 41 -159l219 -650h10l203 648q31 100 31 155q0 39 -18.5 60.5t-61.5 31.5l-62 15v67h439v-67l-52 -17q-43 -12 -67.5 -55t-61.5 -147l-389 -1133h-250l-434 1130q-43 113 -68.5 156t-72.5 55z" />
<glyph unicode="W" horiz-adv-x="2168" d="M0 1352v67h745v-67l-45 -13q-70 -20 -69 -79q0 -47 39 -168l196 -633h11l163 506l-75 239q-18 59 -44 90t-69 45l-41 13v67h745v-67l-77 -17q-63 -12 -64 -86q0 -53 33 -157l194 -633h11l190 635q29 92 29 153q0 76 -80 92l-63 13v67h440v-67l-39 -11q-49 -12 -79 -62 t-73 -173l-360 -1106h-270l-242 782h-8l-256 -782h-279l-391 1159q-37 104 -58.5 139t-64.5 43z" />
<glyph unicode="X" horiz-adv-x="1503" d="M12 0v68l27 8q61 18 104 54t107 132l276 422l-309 506q-43 72 -69.5 99.5t-79.5 47.5l-37 15v67h823v-67l-74 -17q-66 -16 -65 -67q0 -41 61 -150l142 -248h6l139 248q51 90 51 147.5t-90 73.5l-55 13v67h483v-67l-45 -13q-45 -12 -76 -45.5t-106 -148.5l-236 -379 l326 -537q41 -63 67.5 -95t39 -39t40.5 -17l29 -10v-68h-811v68l74 14q66 12 65 74q0 37 -59 143l-164 289h-6l-156 -264q-68 -115 -67.5 -170.5t69.5 -71.5l68 -14v-68h-492z" />
<glyph unicode="Y" horiz-adv-x="1376" d="M-8 1352v67h792v-67l-63 -15q-76 -18 -76 -88q0 -41 37 -121l182 -393h10l162 371q37 82 37 143q0 63 -86 88l-51 15v67h448v-67l-38 -13q-74 -25 -152 -190l-256 -551v-352q0 -102 15.5 -126t80.5 -38l64 -14v-68h-774v68l63 14q66 14 81 37.5t15 126.5v342l-309 579 q-51 96 -77.5 127t-67.5 45z" />
<glyph unicode="Z" horiz-adv-x="1218" d="M29 0v104l680 1217v6h-41q-186 0 -241.5 -16.5t-104.5 -79.5q-76 -100 -172 -299h-72l26 487h1094v-104l-678 -1209v-8h64q135 0 196.5 10.5t94 32t75.5 78.5q84 106 176 320h74l-37 -539h-1134z" />
<glyph unicode="[" horiz-adv-x="688" d="M164 -266v1769h487v-67l-110 -13q-98 -10 -124 -36.5t-26 -126.5v-1280q0 -100 26.5 -128t123.5 -38l110 -13v-67h-487z" />
<glyph unicode="\" horiz-adv-x="804" d="M31 1503h127l647 -1769h-127z" />
<glyph unicode="]" horiz-adv-x="688" d="M37 -199l110 13q96 10 123 37.5t27 128.5v1280q0 100 -25.5 126.5t-124.5 36.5l-110 13v67h487v-1769h-487v67z" />
<glyph unicode="^" horiz-adv-x="1024" d="M133 907l313 512h129l316 -512l-35 -39l-348 291l-340 -291z" />
<glyph unicode="_" horiz-adv-x="739" d="M-6 -213h751v-129h-751v129z" />
<glyph unicode="`" horiz-adv-x="1007" d="M254 1376q0 57 36 100.5t89 43.5q66 0 125 -60l239 -239l-18 -41l-367 71q-51 10 -77.5 46t-26.5 79z" />
<glyph unicode="a" horiz-adv-x="1136" d="M29 246q0 135 95 210.5t314 129.5l162 41v161q0 133 -27.5 177.5t-95.5 44.5q-37 0 -51 -13.5t-16 -56.5q-8 -115 -52.5 -160t-134.5 -45q-156 0 -155 142q0 104 120.5 164.5t372.5 60.5q434 0 434 -291v-532q0 -68 8.5 -95.5t36.5 -42.5q39 -20 95 -20v-62 q-111 -84 -275 -84q-195 0 -237 129h-9q-109 -129 -276 -129q-145 0 -227 72t-82 199zM414 315q0 -170 112 -170q51 0 74 41v326l-61 -4q-70 -4 -97.5 -46.5t-27.5 -146.5z" />
<glyph unicode="b" horiz-adv-x="1288" d="M-20 1450v55l509 45l27 -18q-6 -102 -6 -240v-125l-6 -213h10q160 147 338 148q164 0 281.5 -125t117.5 -379q0 -319 -169 -471t-455 -152q-317 0 -512 138v1147q0 84 -9.5 107.5t-56.5 47.5zM510 137q51 -70 141 -69q70 0 109 29.5t63.5 129t24.5 283.5q0 211 -51.5 296 t-155.5 85q-57 0 -131 -25v-729z" />
<glyph unicode="c" horiz-adv-x="1048" d="M29 539q0 152 57 265.5t153.5 175.5t206 92t232.5 30q162 0 255 -51.5t93 -151.5q0 -72 -43 -116t-115 -44q-152 0 -168 187q-4 53 -18 67.5t-64 14.5q-201 0 -200 -373q0 -227 72.5 -341t242.5 -114q129 0 281 72v-72q-53 -78 -171 -141.5t-280 -63.5q-254 0 -394 150 t-140 414z" />
<glyph unicode="d" horiz-adv-x="1310" d="M37 500q0 311 168 456.5t440 145.5q49 0 139 -21q-4 70 -4 144v35q0 74 -11 96t-54 47l-84 47v55l522 45l27 -18q-6 -102 -6 -240v-1026q0 -82 10 -102.5t59 -40.5l51 -21v-57l-479 -70l-27 19l5 121h-11q-154 -139 -346 -140q-168 0 -283.5 133.5t-115.5 391.5zM440 580 q0 -236 48.5 -326t152.5 -90q39 0 137 33v729q-59 84 -137 84q-201 0 -201 -430z" />
<glyph unicode="e" horiz-adv-x="1105" d="M29 539q0 262 166.5 412.5t388.5 150.5q481 0 495 -514h-667q8 -236 89 -322t251 -86q147 0 290 74v-72q-72 -86 -191.5 -146.5t-266.5 -60.5q-274 0 -414.5 146t-140.5 418zM412 672l286 18q0 186 -28.5 255t-106.5 69q-143 0 -151 -342z" />
<glyph unicode="f" horiz-adv-x="774" d="M-6 934v57l143 84v37q0 213 144.5 332t404.5 119q139 0 218 -47.5t79 -139.5q0 -127 -137 -127q-80 0 -118 33t-44 127q-2 41 -10 52.5t-29 11.5q-55 0 -84 -42t-29 -155v-201h240l-31 -141h-209v-735q0 -74 12.5 -92.5t67.5 -28.5l62 -12v-66h-662v66l39 10 q61 16 73.5 33.5t12.5 89.5v735h-143z" />
<glyph unicode="g" horiz-adv-x="1122" d="M-29 -205q0 72 71 124t202 77v8q-94 18 -145.5 76.5t-51.5 138.5q0 139 160 256v8q-162 88 -162 260q0 166 130 262.5t333 96.5q156 0 268 -49q121 111 242 110q63 0 101 -30.5t38 -88.5q0 -129 -110 -129q-47 0 -71 19.5t-42 60.5q-11 25 -42 25q-25 0 -65 -16v-9 q143 -86 144 -221q0 -168 -129 -263t-334 -95q-125 0 -229 35q-31 -35 -31 -80q0 -63 90 -64h371q375 0 374 -287q0 -209 -169 -333.5t-461 -124.5q-482 0 -482 233zM254 -162q0 -188 246 -188q184 0 259 52t75 148q0 123 -175 123h-350q-55 -51 -55 -135zM399 762 q0 -154 23.5 -205t85.5 -51q63 0 85.5 51t22.5 199q0 154 -23.5 205t-84.5 51q-63 0 -86 -51.5t-23 -198.5z" />
<glyph unicode="h" d="M2 1450v55l510 45l27 -18q-6 -102 -7 -240v-125l-6 -213h11q207 147 391 148q123 0 194.5 -70.5t71.5 -204.5v-628q0 -72 12.5 -89.5t73.5 -33.5l39 -10v-66h-627v66l33 8q53 14 63.5 30.5t10.5 94.5v528q0 82 -31 116t-92 34q-70 0 -144 -13v-665q0 -78 10.5 -94.5 t63.5 -30.5l33 -8v-66h-627v66l39 10q61 16 73.5 33.5t12.5 89.5v1061q0 84 -9 107.5t-56 47.5z" />
<glyph unicode="i" horiz-adv-x="669" d="M2 1004v47l512 51l27 -19q-8 -129 -9 -256v-628q0 -72 12.5 -89.5t73.5 -33.5l39 -10v-66h-645v66l39 10q61 16 73.5 33.5t12.5 89.5v610q0 66 -11 87.5t-58 57.5zM115 1364q0 86 60.5 140.5t150.5 54.5t150.5 -54.5t60.5 -140.5t-60.5 -140.5t-150.5 -54.5t-150.5 54.5 t-60.5 140.5z" />
<glyph unicode="j" horiz-adv-x="641" d="M-276 -221q0 139 151 139q82 0 120 -43t50 -172q4 -47 33 -47q59 0 59 108v1045q0 66 -11 87.5t-58 57.5l-66 50v47l512 51l27 -19q-8 -129 -9 -256v-802q0 -211 -135 -337t-352 -126q-156 0 -238.5 60.5t-82.5 156.5zM115 1364q0 86 60.5 140.5t150.5 54.5t150.5 -54.5 t60.5 -140.5t-60.5 -140.5t-150.5 -54.5t-150.5 54.5t-60.5 140.5z" />
<glyph unicode="k" horiz-adv-x="1296" d="M2 1450v55l510 45l27 -18q-6 -102 -7 -240v-1093q0 -74 10.5 -91.5t61.5 -33.5l27 -8v-66h-619v66l39 10q61 16 73.5 33.5t12.5 89.5v1061q0 84 -9 107.5t-56 47.5zM561 496v45l225 237q76 80 76 152q0 49 -86 71l-31 9v65h494v-65l-33 -9q-43 -10 -78.5 -32.5 t-105.5 -91.5l-168 -164q199 -397 317 -566q39 -57 91 -73l22 -8v-66h-459q-166 263 -264 496z" />
<glyph unicode="l" horiz-adv-x="681" d="M2 1450v55l516 45l27 -18q-6 -102 -6 -240v-1093q0 -72 13 -89.5t79 -33.5l39 -10v-66h-658v66l39 10q66 16 79 33.5t13 89.5v1061q0 82 -10 105.5t-61 49.5z" />
<glyph unicode="m" horiz-adv-x="1951" d="M2 1004v47l494 51l26 -19l-4 -137h10q205 156 385.5 156t241.5 -156h10q205 156 389 156q117 0 189 -70.5t72 -204.5v-628q0 -72 12 -89.5t74 -33.5l38 -10v-66h-616v66l29 8q49 14 58 31.5t9 93.5v528q0 84 -25.5 117t-84.5 33q-66 0 -140 -13q4 -29 5 -59v-606 q0 -78 9 -94.5t58 -30.5l29 -8v-66h-588v66l29 8q49 14 58 31.5t9 93.5v528q0 84 -25.5 117t-84.5 33q-61 0 -136 -13v-665q0 -78 9.5 -94.5t58.5 -30.5l29 -8v-66h-617v66l39 10q61 16 73.5 33.5t12.5 89.5v610q0 66 -11 87.5t-58 57.5z" />
<glyph unicode="n" d="M2 1004v47l494 51l26 -19l-4 -137h10q205 156 400 156q123 0 194.5 -70.5t71.5 -204.5v-628q0 -72 12.5 -89.5t73.5 -33.5l39 -10v-66h-627v66l33 8q53 14 63.5 30.5t10.5 94.5v528q0 82 -31 116t-92 34q-70 0 -144 -13v-665q0 -78 10.5 -94.5t63.5 -30.5l33 -8v-66h-627 v66l39 10q61 16 73.5 33.5t12.5 89.5v610q0 66 -11 87.5t-58 57.5z" />
<glyph unicode="o" horiz-adv-x="1220" d="M29 535q0 147 50 260.5t134 178t184.5 96.5t212.5 32q244 0 413 -144.5t169 -414.5q0 -150 -49 -262.5t-133 -177t-184.5 -96.5t-215.5 -32q-246 0 -413.5 145t-167.5 415zM438 571q0 -219 20.5 -329.5t54.5 -142t101 -31.5q41 0 67 12t51.5 55t37.5 140.5t12 250.5 q0 160 -11 260.5t-37.5 147.5t-54.5 61.5t-75 14.5q-55 0 -89 -32t-55.5 -131.5t-21.5 -275.5z" />
<glyph unicode="p" horiz-adv-x="1310" d="M2 1004v47l494 51l26 -19l-4 -135h10q170 154 346 154q164 0 282 -125t118 -379q0 -317 -164 -470t-436 -153q-80 0 -146 17q4 -47 4 -121v-100q0 -72 11.5 -90.5t68.5 -30.5l54 -12v-66h-654v66l39 10q61 16 73.5 33.5t12.5 89.5v1038q0 66 -11 87.5t-58 57.5zM532 137 q51 -70 142 -69q70 0 108.5 29.5t63 129t24.5 283.5q0 211 -51 296t-155 85q-57 0 -132 -25v-729z" />
<glyph unicode="q" horiz-adv-x="1294" d="M37 500q0 311 168 456.5t440 145.5q201 0 363 -96h16l106 92l44 -17v-1310q0 -70 13 -88.5t73 -34.5l38 -10v-66h-653v66l53 12q57 12 68.5 30.5t11.5 90.5v168q0 45 4 89t9 66l2 21h-11q-154 -139 -346 -140q-168 0 -283.5 133.5t-115.5 391.5zM440 580 q0 -236 48.5 -326t152.5 -90q39 0 137 33v745q-63 68 -137 68q-201 0 -201 -430z" />
<glyph unicode="r" horiz-adv-x="1013" d="M2 1004v47l494 51l26 -19l-4 -151h10q143 168 303 168q80 0 125 -43t45 -127q0 -82 -44 -128t-113 -46q-76 0 -109 19.5t-76 80.5q-14 23 -47 23q-35 0 -80 -37v-643q0 -76 12.5 -94.5t65.5 -28.5l47 -8v-68h-645v66l39 10q61 16 73.5 33.5t12.5 89.5v610q0 66 -11 87.5 t-58 57.5z" />
<glyph unicode="s" horiz-adv-x="913" d="M41 735q0 160 120 263.5t347 103.5q186 0 289 -37l14 -289h-63q-66 109 -125 170q-35 37 -68 50.5t-90 13.5q-49 0 -84 -32t-35 -85q0 -57 35 -92t149 -76q199 -72 277 -158t78 -211q0 -174 -127 -277.5t-365 -103.5q-186 0 -332 39l-18 330h68q78 -131 147 -205 q66 -72 174 -71q66 0 106 32.5t40 92.5q0 63 -49.5 101t-194.5 91q-150 55 -221.5 136t-71.5 214z" />
<glyph unicode="t" horiz-adv-x="794" d="M-6 934v57q131 53 227 149.5t139 221.5h152v-287h266l-30 -141h-236v-621q0 -84 26.5 -116.5t106.5 -32.5q59 0 141 14v-67q-135 -135 -356 -136q-162 0 -237.5 76t-75.5 244v639h-123z" />
<glyph unicode="u" d="M2 1004v47l504 51l26 -19v-733q0 -88 30 -122.5t91 -34.5q55 0 146 26v596q0 68 -11.5 91.5t-58.5 54.5l-65 43v47l503 51l27 -19v-817q0 -82 10 -102.5t60 -40.5l51 -21v-57l-479 -70l-27 19l4 143h-10q-102 -78 -193.5 -120t-206.5 -42q-123 0 -194.5 71t-71.5 204v565 q0 70 -10 91.5t-59 54.5z" />
<glyph unicode="v" horiz-adv-x="1193" d="M-8 1010v65h698v-65l-55 -15q-70 -18 -70 -92q0 -37 27 -112l151 -418h13l141 418q27 76 27 114q0 72 -70 90l-55 15v65h403v-65l-28 -11q-43 -14 -71 -50t-71 -146l-313 -803h-217l-344 825q-41 96 -66.5 130t-64.5 44z" />
<glyph unicode="w" horiz-adv-x="1806" d="M-8 1010v65h639v-65l-39 -11q-49 -14 -49 -63q0 -37 35 -145l133 -418h12l135 387l-22 65q-37 104 -57.5 134t-55.5 40l-35 11v65h647v-65l-55 -15q-66 -16 -66 -86q0 -49 23 -118l135 -418h12l125 418q25 88 25 118q0 68 -68 86l-55 15v65h404v-65l-29 -11 q-45 -14 -74 -52t-67 -144l-297 -803h-218l-212 608h-7l-225 -608h-217l-311 825q-37 96 -63.5 129t-67.5 45z" />
<glyph unicode="x" horiz-adv-x="1259" d="M8 0v66l39 8q43 8 78 40.5t92 114.5l203 289l-232 340q-57 82 -85.5 106.5t-65.5 36.5l-27 9v65h701v-65l-41 -9q-70 -16 -70 -61q0 -35 41 -96l121 -178h6l84 149q39 70 39 115q0 51 -76 71l-37 9v65h424v-65l-33 -9q-82 -16 -180 -170l-166 -253l252 -361l29 -40 q18 -26 24.5 -33t17.5 -22.5t16 -18.5l17 -10q11 -7 21 -11t25 -8l26 -8v-66h-698v66l43 8q59 12 59 59q0 37 -53 119l-121 180h-6l-96 -162q-51 -86 -51 -129q0 -53 71 -67l41 -8v-66h-432z" />
<glyph unicode="y" horiz-adv-x="1202" d="M-8 1010v65h682v-65l-56 -15q-68 -18 -67 -90q0 -47 29 -114l161 -392h9l151 392q29 74 29 122q0 63 -70 82l-57 15v65h407v-65l-41 -15q-39 -12 -59 -44.5t-70 -147.5l-399 -922q-72 -166 -147.5 -237.5t-214.5 -71.5q-98 0 -164 46t-66 122q0 61 37 96t100 35 q70 0 104 -25.5t50 -89.5q12 -43 39 -43q35 0 67.5 42t85.5 159l19 41l-406 868q-49 106 -70.5 136t-51.5 40z" />
<glyph unicode="z" horiz-adv-x="1036" d="M16 0v109l566 858v8h-52q-109 0 -151.5 -11.5t-85.5 -52.5q-51 -49 -162 -225h-63l24 389h918v-104l-564 -862v-9h68q129 0 180 14.5t92 61.5q84 92 158 221h68l-37 -397h-959z" />
<glyph unicode="{" horiz-adv-x="741" d="M82 578v90q131 8 175 28.5t44 65.5q0 37 -43 221t-43 242q0 61 15.5 101t62.5 81t148.5 65.5t263.5 36.5v-75q-154 -20 -192 -52t-38 -133q0 -57 15.5 -209.5t15.5 -199.5q0 -98 -57.5 -144.5t-241.5 -68.5v-9q184 -23 241.5 -68.5t57.5 -143.5q0 -47 -15.5 -200 t-15.5 -210q0 -100 38 -132t192 -52v-76q-162 12 -263.5 36.5t-148.5 65.5t-62.5 81t-15.5 101q0 57 43 241.5t43 221.5q0 45 -44 66t-175 29z" />
<glyph unicode="|" horiz-adv-x="450" d="M168 -266v1769h115v-1769h-115z" />
<glyph unicode="}" horiz-adv-x="741" d="M82 -188q154 20 191.5 52t37.5 132q0 57 -15 209.5t-15 200.5q0 98 57 144t242 68v9q-184 23 -241.5 68.5t-57.5 144.5q0 47 15 199.5t15 209.5q0 100 -37.5 132t-191.5 53v75q162 -12 263 -36.5t148.5 -65.5t62.5 -81t15 -101q0 -57 -43 -241.5t-43 -221.5 q0 -45 44 -65.5t176 -28.5v-90q-131 -8 -175.5 -29t-44.5 -66q0 -37 43 -221t43 -242q0 -61 -15 -101t-62.5 -81t-148.5 -65.5t-263 -36.5v76z" />
<glyph unicode="~" horiz-adv-x="813" d="M57 506q49 135 93.5 194.5t111.5 59.5q49 0 172 -37t164 -37q31 0 54.5 17.5t52.5 64.5l61 -31q-49 -137 -90 -195.5t-115 -58.5q-49 0 -172 37t-166 37q-31 0 -53.5 -17.5t-50.5 -64.5z" />
<glyph unicode="&#xa1;" horiz-adv-x="614" d="M92 133l178 643h72l178 -643q19 -70 19 -125q0 -76 -36 -125q-62 -84 -197.5 -84t-196.5 84q-35 48 -36 124q0 56 19 126zM113 1063q0 78 56 135t136 57q78 0 137.5 -58t59.5 -134q0 -82 -59.5 -137.5t-137.5 -55.5q-80 0 -136 55.5t-56 137.5z" />
<glyph unicode="&#xa2;" horiz-adv-x="1048" d="M29 547q0 254 153.5 388t384.5 161v125h92v-119h19q168 0 261 -51.5t93 -151.5q0 -72 -41 -116t-110 -44q-86 0 -120 43t-40 125q-4 47 -17.5 69.5t-44.5 29.5v-830q16 -2 54 -2q70 0 131 13.5t87.5 24.5t86.5 40v-72q-47 -68 -138.5 -127t-220.5 -73v-205h-92v200 q-252 6 -395 158t-143 414zM418 635q0 -344 149 -428v792q-149 -40 -149 -364z" />
<glyph unicode="&#xa3;" horiz-adv-x="1144" d="M37 0v197q104 72 153.5 135t49.5 164q0 70 -43 190h-150v109h111q-45 139 -45 227q0 188 144 305t415 117q227 0 334.5 -69.5t107.5 -188.5q0 -72 -44 -111t-120 -39q-98 0 -139 55.5t-57 176.5q-8 59 -21.5 74.5t-48.5 15.5q-66 0 -94.5 -47t-28.5 -170q0 -51 12.5 -171 t14.5 -175h284v-109h-284q-18 -246 -314 -385v-12h603q63 0 96 29.5t61 132.5h72l-29 -451h-1040z" />
<glyph unicode="&#xa5;" horiz-adv-x="1376" d="M25 1352v67h784v-67l-55 -13q-74 -18 -74 -90q0 -41 35 -121l147 -337h10l125 315q41 100 41 143q0 37 -19.5 56.5t-66.5 33.5l-43 13v67h441v-67l-39 -13q-47 -16 -74 -52t-74 -138l-186 -404h305v-108h-344v-137h344v-109h-344v-145q0 -102 15.5 -126t80.5 -38l64 -14 v-68h-774v68l63 14q66 14 81 37.5t15 126.5v145h-356v109h356v137h-356v108h305l-225 422q-51 96 -78 127t-68 45z" />
<glyph unicode="&#xa6;" horiz-adv-x="450" d="M168 -266v794h115v-794h-115zM168 662v841h115v-841h-115z" />
<glyph unicode="&#xa7;" horiz-adv-x="1230" d="M41 528q0 131 68.5 214t193.5 147q-59 86 -59 194q0 152 111.5 253.5t297.5 101.5q180 0 272.5 -57.5t92.5 -155.5q0 -49 -35 -88t-102 -39q-82 0 -118 44t-42 138q-2 45 -22.5 60.5t-73.5 15.5q-45 0 -85 -31t-40 -92q0 -59 52 -104.5t282 -202.5q227 -156 293.5 -241 t66.5 -212q0 -211 -256 -358q45 -72 45 -162q0 -168 -123 -269.5t-301 -101.5q-174 0 -262 59.5t-88 157.5q0 61 37 94t102 33q78 0 113 -43t41 -137q4 -47 23.5 -64.5t70.5 -17.5q125 0 125 113q0 63 -55.5 114.5t-278.5 200.5q-195 131 -270.5 222t-75.5 214zM285 713 q0 -55 59 -115.5t236 -179.5q229 -158 301 -232q61 49 61 113q0 59 -56.5 121.5t-246.5 185.5q-209 135 -287 221q-67 -53 -67 -114z" />
<glyph unicode="&#xa8;" horiz-adv-x="1024" d="M111 1341.5q0 77.5 52 127t130 49.5t131 -49.5t53 -127t-53 -127t-131 -49.5t-130 49.5t-52 127zM549 1341.5q0 77.5 52 127t130 49.5t130 -49.5t52 -127t-52 -127t-130 -49.5t-130 49.5t-52 127z" />
<glyph unicode="&#xa9;" horiz-adv-x="1613" d="M72 704.5q0 307.5 212 522.5t521 215t523 -215t214 -522.5t-214 -524.5t-523 -217t-521 217t-212 524.5zM180 704.5q0 -268.5 177.5 -456t447.5 -187.5q268 0 446.5 187.5t178.5 456t-178.5 455t-446.5 186.5q-270 0 -447.5 -186.5t-177.5 -455zM367 713q0 229 134 339.5 t341 110.5q135 0 264 -35l12 -262h-53q-84 141 -127 188.5t-98 47.5q-158 0 -158 -365q0 -215 42 -308t128 -93q70 0 115 59q16 20 112 209h56l-17 -280q-133 -49 -297 -50q-211 0 -332.5 111t-121.5 328z" />
<glyph unicode="&#xaa;" horiz-adv-x="948" d="M25 748q0 106 79.5 169.5t260.5 110.5l133 35v108q0 111 -22.5 147t-76.5 36q-29 0 -40 -12.5t-15 -49.5q-12 -98 -46 -133t-114 -35q-129 0 -129 115q0 84 101.5 139.5t308.5 55.5q365 0 364 -246v-412q0 -53 7.5 -75.5t31.5 -34.5q33 -16 78 -17v-53q-98 -66 -231 -66 q-162 0 -199 103h-6q-86 -102 -229 -103q-121 0 -188.5 58t-67.5 160zM348 805q0 -74 21.5 -100.5t64.5 -26.5q45 0 64 29v258l-52 -4q-57 -4 -77.5 -36t-20.5 -120z" />
<glyph unicode="&#xab;" horiz-adv-x="946" d="M43 498v39l358 405h76l-141 -422l141 -428h-76zM436 498v39l359 405h75l-141 -422l141 -428h-75z" />
<glyph unicode="&#xac;" horiz-adv-x="1650" d="M84 710.5q0 307.5 216 523.5t523 216t525.5 -216t218.5 -523q0 -305 -219.5 -523.5t-524.5 -218.5q-307 0 -523 217t-216 524.5z" />
<glyph unicode="&#xad;" horiz-adv-x="571" d="M37 473l29 234h469l-31 -234h-467z" />
<glyph unicode="&#xae;" horiz-adv-x="1613" d="M72 704.5q0 307.5 212 522.5t521 215t523 -215t214 -522.5t-214 -524.5t-523 -217t-521 217t-212 524.5zM180 704.5q0 -268.5 177.5 -456t447.5 -187.5q268 0 446.5 187.5t178.5 456t-178.5 455t-446.5 186.5q-270 0 -447.5 -186.5t-177.5 -455zM399 303v43l35 8 q23 8 31 13.5t14 25t6 58.5v530q0 55 -10 70.5t-41 23.5l-35 8v45h406q373 0 373 -227q0 -154 -158 -203v-6q66 -164 160 -311q14 -23 43 -31l16 -4v-43h-303q-84 127 -154 346l-34 2v-200q0 -57 8 -71.5t39 -25.5l34 -8v-43h-430zM748 715q8 -4 32 -4q59 0 85 40t26 136 q0 100 -21.5 140t-76.5 40q-33 0 -45 -8v-344z" />
<glyph unicode="&#xaf;" horiz-adv-x="1024" d="M240 1239v180h544v-180h-544z" />
<glyph unicode="&#xb0;" horiz-adv-x="622" d="M57 1188q0 104 73 179t181.5 75t181 -75t72.5 -179q0 -106 -72.5 -181t-181 -75t-181.5 75t-73 181zM164 1188q0 -70 41 -116t106.5 -46t106.5 46t41 116q0 68 -41 114t-106.5 46t-106.5 -46t-41 -114z" />
<glyph unicode="&#xb1;" horiz-adv-x="1675" d="M57 707v8l588 590q65 65 139 64q31 0 65 -11q112 -39 130 -141q3 -16 3 -32q0 -87 -85 -173l-164 -135l694 32q7 0 15 1q118 0 169 -97q27 -51 27 -102.5t-27 -102.5q-51 -97 -169 -96h-15l-694 33l164 -135q87 -72 87 -160q0 -21 -5 -44q-27 -114 -130 -140 q-26 -7 -52 -7q-77 0 -154 60z" />
<glyph unicode="&#xb2;" horiz-adv-x="735" d="M23 610v140q102 74 151 114.5t117 112.5q102 104 102 256q0 131 -78 131q-23 0 -29.5 -11.5t-11.5 -54.5q-10 -76 -41.5 -107.5t-101.5 -31.5q-109 0 -108 96q0 78 89 128.5t236 50.5q164 0 259 -60.5t95 -175.5q0 -92 -98 -179t-350 -185v-7h266q39 0 54.5 17.5 t43.5 85.5h72l-16 -320h-651z" />
<glyph unicode="&#xb3;" horiz-adv-x="765" d="M27 750q0 100 104 100q59 0 90 -29.5t41 -107.5q4 -35 15.5 -43t46.5 -8q98 0 98 165q0 72 -25.5 110t-55.5 45t-79 7h-55v90h43q78 0 113.5 32t35.5 112q0 143 -65 143q-25 0 -35 -10t-12 -43q-10 -113 -123 -113q-47 0 -76 23.5t-29 66.5q0 143 293 144 q156 0 247 -47.5t91 -145.5q0 -147 -239 -184v-4q123 -4 199.5 -57.5t76.5 -157.5q0 -244 -393 -244q-166 0 -236.5 39t-70.5 117z" />
<glyph unicode="&#xb4;" horiz-adv-x="1024" d="M272 1221l240 239q59 59 125 60q53 0 89 -43t36 -101q0 -43 -26.5 -78.5t-78.5 -46.5l-366 -71z" />
<glyph unicode="&#xb5;" horiz-adv-x="1675" d="M65 608q-27 51 -27.5 102.5t27.5 102.5q51 97 168 97q7 0 15 -1l694 -32l-164 135q-87 72 -87 160q0 21 5 43q27 114 129 142q26 7 53 7l152 -59l588 -590v-8l-586 -588q-67 -65 -142 -66q-31 0 -64 12q-112 38 -130 140q-3 16 -3 32q0 87 85 173l164 135l-694 -33h-15 q-117 -1 -168 96z" />
<glyph unicode="&#x3bc;" horiz-adv-x="1675" d="M65 608q-27 51 -27.5 102.5t27.5 102.5q51 97 168 97q7 0 15 -1l694 -32l-164 135q-87 72 -87 160q0 21 5 43q27 114 129 142q26 7 53 7l152 -59l588 -590v-8l-586 -588q-67 -65 -142 -66q-31 0 -64 12q-112 38 -130 140q-3 16 -3 32q0 87 85 173l164 135l-694 -33h-15 q-117 -1 -168 96z" />
<glyph unicode="&#xb6;" horiz-adv-x="1118" d="M37 1049q0 162 100.5 266t292.5 104h664v-67l-58 -15q-57 -14 -73.5 -39.5t-16.5 -123.5v-1379h-123v1522h-180v-1522h-123v871q-33 -4 -88 -4q-199 0 -297 107.5t-98 279.5z" />
<glyph unicode="&#xb7;" horiz-adv-x="491" d="M51 688q0 82 56.5 137.5t136.5 55.5q78 0 137 -55.5t59 -137.5q0 -76 -59 -134t-137 -58q-80 0 -136.5 57t-56.5 135z" />
<glyph unicode="&#xb8;" horiz-adv-x="1024" d="M326 -371q174 35 174 101q0 51 -99 55l-10 16l98 199h97l-68 -88q92 -8 140.5 -43t48.5 -84q0 -174 -381 -207v51z" />
<glyph unicode="&#xb9;" horiz-adv-x="583" d="M29 610v70l34 8q43 12 53.5 26.5t10.5 78.5v360l-94 25v63q100 18 201.5 71.5t156.5 117.5l64 -11v-626q0 -61 13 -80t54 -25l35 -8v-70h-528z" />
<glyph unicode="&#xba;" horiz-adv-x="1021" d="M29 981q0 119 43 209t113.5 141t153.5 77t171 26q193 0 338 -116t145 -331q0 -156 -74.5 -262.5t-180 -149.5t-228.5 -43q-193 0 -337 117t-144 332zM377 1010q0 -174 13 -258t40 -110t82 -26q33 0 53.5 10.5t41 43t29.5 108.5t9 197q0 166 -16.5 249t-42 104.5 t-76.5 21.5q-70 0 -101.5 -69.5t-31.5 -270.5z" />
<glyph unicode="&#xbb;" horiz-adv-x="946" d="M76 92l141 428l-141 422h76l358 -405v-39l-358 -406h-76zM469 92l141 428l-141 422h76l358 -405v-39l-358 -406h-76z" />
<glyph unicode="&#xbc;" horiz-adv-x="1742" d="M31 610v70l35 8q43 12 53 26.5t10 78.5v360l-94 25v63q100 18 201.5 71.5t156.5 117.5l64 -11v-626q0 -61 13 -80t54 -25l35 -8v-70h-528zM229 -102l1100 1564h144l-1100 -1564h-144zM956 219v84l433 506h219v-481h125l-11 -109h-114v-37q0 -61 12 -79.5t51 -24.5l39 -8 v-70h-514v70l35 8q41 10 52 25.5t11 78.5v37h-338zM1083 328h211v247h-6l-205 -239v-8z" />
<glyph unicode="&#xbd;" horiz-adv-x="1695" d="M31 610v70l35 8q43 12 53 26.5t10 78.5v360l-94 25v63q100 18 201.5 71.5t156.5 117.5l64 -11v-626q0 -61 13 -80t54 -25l35 -8v-70h-528zM168 -102l1100 1564h143l-1100 -1564h-143zM975 0v139q102 74 151.5 115t116.5 113q102 104 103 256q0 131 -78 131 q-23 0 -30 -11.5t-11 -54.5q-10 -76 -42 -107.5t-102 -31.5q-109 0 -108 96q0 78 89 128t236 50q164 0 259.5 -60.5t95.5 -174.5q0 -92 -98.5 -179t-350.5 -186v-6h267q39 0 54 17.5t44 84.5h71l-16 -319h-651z" />
<glyph unicode="&#xbe;" horiz-adv-x="1867" d="M51 750q0 100 105 100q59 0 89.5 -29.5t41.5 -107.5q4 -35 15 -43t46 -8q98 0 98 165q0 72 -25.5 110t-55 45t-78.5 7h-56v90h43q78 0 114 32t36 112q0 143 -66 143q-25 0 -35 -10t-12 -43q-10 -113 -123 -113q-47 0 -75.5 23.5t-28.5 66.5q0 143 293 144 q156 0 247 -47.5t91 -145.5q0 -147 -240 -184v-4q123 -4 200 -57.5t77 -157.5q0 -244 -394 -244q-166 0 -236.5 39t-70.5 117zM354 -102l1100 1564h143l-1099 -1564h-144zM1081 219v84l432 506h220v-481h125l-11 -109h-114v-37q0 -61 12 -79.5t51 -24.5l39 -8v-70h-514v70 l35 8q41 10 52 25.5t11 78.5v37h-338zM1208 328h211v247h-6l-205 -239v-8z" />
<glyph unicode="&#xbf;" horiz-adv-x="1021" d="M57 190q0 201 146.5 320t388.5 152v133h121v-361q-61 -16 -97 -32.5t-78 -48t-61.5 -87t-19.5 -133.5q0 -227 127 -227q33 0 41 15.5t16 72.5q14 104 62.5 151.5t142.5 47.5q72 0 111.5 -41t39.5 -101q0 -111 -120.5 -174t-333.5 -63q-236 0 -361 103t-125 273zM453 1081 q0 76 59 134.5t137 58.5q80 0 136.5 -57.5t56.5 -135.5q0 -82 -56.5 -137t-136.5 -55q-78 0 -137 55t-59 137z" />
<glyph unicode="&#xc0;" horiz-adv-x="1466" d="M-4 0v68l45 14q49 16 74.5 51t68.5 154l412 1132h254l422 -1130q45 -119 70.5 -158t72.5 -53l37 -10v-68h-770v68l57 14q76 20 76 88q0 43 -41 158l-31 92h-387l-30 -94q-35 -100 -35 -148q0 -45 19.5 -62.5t76.5 -33.5l51 -14v-68h-442zM391 522h318l-154 459h-10z M451 1704q0 57 35.5 100t88.5 43q66 0 125 -59l240 -240l-18 -41l-367 72q-51 10 -77.5 46t-26.5 79z" />
<glyph unicode="&#xc1;" horiz-adv-x="1466" d="M-4 0v68l45 14q49 16 74.5 51t68.5 154l412 1132h254l422 -1130q45 -119 70.5 -158t72.5 -53l37 -10v-68h-770v68l57 14q76 20 76 88q0 43 -41 158l-31 92h-387l-30 -94q-35 -100 -35 -148q0 -45 19.5 -62.5t76.5 -33.5l51 -14v-68h-442zM391 522h318l-154 459h-10z M512 1548l240 240q59 59 125 59q53 0 88.5 -43t35.5 -100q0 -43 -26.5 -79t-77.5 -46l-367 -72z" />
<glyph unicode="&#xc2;" horiz-adv-x="1466" d="M-4 0v68l45 14q49 16 74.5 51t68.5 154l412 1132h254l422 -1130q45 -119 70.5 -158t72.5 -53l37 -10v-68h-770v68l57 14q76 20 76 88q0 43 -41 158l-31 92h-387l-30 -94q-35 -100 -35 -148q0 -45 19.5 -62.5t76.5 -33.5l51 -14v-68h-442zM391 522h318l-154 459h-10z M412 1534l250 301h120l252 -301l-26 -41l-285 109l-285 -109z" />
<glyph unicode="&#xc3;" horiz-adv-x="1466" d="M-4 0v68l45 14q49 16 74.5 51t68.5 154l412 1132h254l422 -1130q45 -119 70.5 -158t72.5 -53l37 -10v-68h-770v68l57 14q76 20 76 88q0 43 -41 158l-31 92h-387l-30 -94q-35 -100 -35 -148q0 -45 19.5 -62.5t76.5 -33.5l51 -14v-68h-442zM387 1530q37 100 59.5 148 t61.5 85t88 37q43 0 149.5 -25.5t151.5 -25.5q35 0 56.5 15.5t50.5 60.5l63 -33q-23 -66 -34 -94.5t-31.5 -70.5t-39 -59.5t-45 -31.5t-59.5 -14q-43 0 -150.5 25.5t-152.5 25.5q-33 0 -54.5 -14.5t-49.5 -61.5zM391 522h318l-154 459h-10z" />
<glyph unicode="&#xc4;" horiz-adv-x="1466" d="M-4 0v68l45 14q49 16 74.5 51t68.5 154l412 1132h254l422 -1130q45 -119 70.5 -158t72.5 -53l37 -10v-68h-770v68l57 14q76 20 76 88q0 43 -41 158l-31 92h-387l-30 -94q-35 -100 -35 -148q0 -45 19.5 -62.5t76.5 -33.5l51 -14v-68h-442zM313 1669q0 78 52.5 127t130 49 t131 -49t53.5 -127t-53.5 -127t-131 -49t-130 49t-52.5 127zM391 522h318l-154 459h-10zM752 1669q0 78 52 127t130 49t130 -49t52 -127t-52 -127t-130 -49t-130 49t-52 127z" />
<glyph unicode="&#xc5;" horiz-adv-x="1466" d="M-4 0v68l45 14q49 16 74.5 51t68.5 154l412 1132h254l422 -1130q45 -119 70.5 -158t72.5 -53l37 -10v-68h-770v68l57 14q76 20 76 88q0 43 -41 158l-31 92h-387l-30 -94q-35 -100 -35 -148q0 -45 19.5 -62.5t76.5 -33.5l51 -14v-68h-442zM391 522h318l-154 459h-10z M502 1667q0 86 61.5 141.5t153.5 55.5q94 0 154.5 -53.5t60.5 -143.5q0 -86 -61.5 -140t-153.5 -54q-100 0 -157.5 53t-57.5 141zM610 1667q0 -49 30 -83t77 -34t76.5 34t29.5 83q0 51 -29.5 85t-76.5 34q-45 0 -76 -34t-31 -85z" />
<glyph unicode="&#xc6;" horiz-adv-x="1943" d="M-8 0v68l45 14q55 16 89 51t101 154l584 1011q-29 27 -94 41l-62 13v67h1192l19 -440h-70q-57 135 -123 231q-49 70 -95 88.5t-132 18.5t-162 -17v-516h14q94 0 128 13.5t53 46.5q43 70 69 157h70v-544h-70q-25 86 -69 170q-18 37 -50 48t-133 11h-12v-401 q0 -125 24.5 -154t147.5 -29q111 0 154 25t98 113q49 76 135 280h72l-29 -520h-1184v68l56 14q41 12 57 20.5t28.5 42t12.5 101.5v155h-424l-41 -73q-70 -123 -70 -175q0 -47 74 -71l49 -14v-68h-452zM485 498h371v659h-6z" />
<glyph unicode="&#xc7;" horiz-adv-x="1292" d="M45 698q0 188 62.5 334t171 234t244.5 133t292 45q229 0 393 -47l27 -434h-72q-98 184 -182 290q-43 55 -85 77t-103 22q-154 0 -211.5 -138.5t-57.5 -474.5q0 -270 31 -417.5t90.5 -200.5t163.5 -53q63 0 109.5 26.5t97.5 91.5q80 109 168 301h69l-24 -432 q-213 -80 -447 -80q-12 0 -32.5 1t-30.5 1l-49 -65q92 -8 140 -43t48 -84q0 -174 -381 -207v51q174 35 174 101q0 51 -98 55l-10 16l90 187q-270 39 -429 223t-159 487z" />
<glyph unicode="&#xc8;" horiz-adv-x="1306" d="M25 0v68l57 14q57 14 73.5 39.5t16.5 124.5v928q0 98 -16.5 123.5t-73.5 39.5l-57 15v67h1183l19 -440h-72q-63 143 -127 231q-51 70 -97 88.5t-147 18.5q-86 0 -157 -21v-512h26q94 0 128 13.5t53 46.5q43 70 69 157h70v-544h-70q-25 86 -69 170q-18 37 -50 48t-133 11 h-24v-401q0 -125 25.5 -154t150.5 -29q115 0 160 25t102 113q53 80 139 280h74l-29 -520h-1224zM408 1704q0 57 35.5 100t88.5 43q66 0 125 -59l240 -240l-18 -41l-367 72q-51 10 -77.5 46t-26.5 79z" />
<glyph unicode="&#xc9;" horiz-adv-x="1306" d="M25 0v68l57 14q57 14 73.5 39.5t16.5 124.5v928q0 98 -16.5 123.5t-73.5 39.5l-57 15v67h1183l19 -440h-72q-63 143 -127 231q-51 70 -97 88.5t-147 18.5q-86 0 -157 -21v-512h26q94 0 128 13.5t53 46.5q43 70 69 157h70v-544h-70q-25 86 -69 170q-18 37 -50 48t-133 11 h-24v-401q0 -125 25.5 -154t150.5 -29q115 0 160 25t102 113q53 80 139 280h74l-29 -520h-1224zM475 1548l240 240q59 59 125 59q53 0 89 -43t36 -100q0 -43 -27 -79t-78 -46l-366 -72z" />
<glyph unicode="&#xca;" horiz-adv-x="1306" d="M25 0v68l57 14q57 14 73.5 39.5t16.5 124.5v928q0 98 -16.5 123.5t-73.5 39.5l-57 15v67h1183l19 -440h-72q-63 143 -127 231q-51 70 -97 88.5t-147 18.5q-86 0 -157 -21v-512h26q94 0 128 13.5t53 46.5q43 70 69 157h70v-544h-70q-25 86 -69 170q-18 37 -50 48t-133 11 h-24v-401q0 -125 25.5 -154t150.5 -29q115 0 160 25t102 113q53 80 139 280h74l-29 -520h-1224zM377 1534l250 301h121l251 -301l-26 -41l-285 109l-285 -109z" />
<glyph unicode="&#xcb;" horiz-adv-x="1306" d="M25 0v68l57 14q57 14 73.5 39.5t16.5 124.5v928q0 98 -16.5 123.5t-73.5 39.5l-57 15v67h1183l19 -440h-72q-63 143 -127 231q-51 70 -97 88.5t-147 18.5q-86 0 -157 -21v-512h26q94 0 128 13.5t53 46.5q43 70 69 157h70v-544h-70q-25 86 -69 170q-18 37 -50 48t-133 11 h-24v-401q0 -125 25.5 -154t150.5 -29q115 0 160 25t102 113q53 80 139 280h74l-29 -520h-1224zM274 1669q0 78 52.5 127t130.5 49t131 -49t53 -127t-53 -127t-131 -49t-130.5 49t-52.5 127zM713 1669q0 78 52 127t130 49t130 -49t52 -127t-52 -127t-130 -49t-130 49 t-52 127z" />
<glyph unicode="&#xcc;" horiz-adv-x="811" d="M25 0v68l63 14q57 12 73.5 38.5t16.5 125.5v928q0 98 -16.5 124.5t-73.5 38.5l-63 15v67h761v-67l-63 -15q-57 -12 -73.5 -38.5t-16.5 -124.5v-928q0 -98 16.5 -125t73.5 -39l63 -14v-68h-761zM131 1704q0 57 36 100t89 43q66 0 125 -59l240 -240l-19 -41l-366 72 q-51 10 -78 46t-27 79z" />
<glyph unicode="&#xcd;" horiz-adv-x="811" d="M25 0v68l63 14q57 12 73.5 38.5t16.5 125.5v928q0 98 -16.5 124.5t-73.5 38.5l-63 15v67h761v-67l-63 -15q-57 -12 -73.5 -38.5t-16.5 -124.5v-928q0 -98 16.5 -125t73.5 -39l63 -14v-68h-761zM186 1548l240 240q59 59 125 59q53 0 89 -43t36 -100q0 -43 -26.5 -79 t-78.5 -46l-366 -72z" />
<glyph unicode="&#xce;" horiz-adv-x="811" d="M25 0v68l63 14q57 12 73.5 38.5t16.5 125.5v928q0 98 -16.5 124.5t-73.5 38.5l-63 15v67h761v-67l-63 -15q-57 -12 -73.5 -38.5t-16.5 -124.5v-928q0 -98 16.5 -125t73.5 -39l63 -14v-68h-761zM96 1534l250 301h121l252 -301l-27 -41l-284 109l-285 -109z" />
<glyph unicode="&#xcf;" horiz-adv-x="811" d="M4 1669q0 78 52.5 127t130 49t131 -49t53.5 -127t-53.5 -127t-131 -49t-130 49t-52.5 127zM25 0v68l63 14q57 12 73.5 38.5t16.5 125.5v928q0 98 -16.5 124.5t-73.5 38.5l-63 15v67h761v-67l-63 -15q-57 -12 -73.5 -38.5t-16.5 -124.5v-928q0 -98 16.5 -125t73.5 -39 l63 -14v-68h-761zM442 1669q0 78 52.5 127t130 49t130 -49t52.5 -127t-52.5 -127t-130 -49t-130 49t-52.5 127z" />
<glyph unicode="&#xd0;" horiz-adv-x="1542" d="M25 0v68l57 14q57 14 73.5 39.5t16.5 124.5v413h-119v99h119v416q0 98 -16.5 123.5t-73.5 39.5l-57 15v67h747q346 0 535.5 -170t189.5 -508q0 -344 -194.5 -542.5t-538.5 -198.5h-739zM627 287q0 -115 23.5 -150t88.5 -35q141 0 212 138.5t71 447.5q0 244 -35 385 t-95.5 192.5t-156.5 51.5q-80 0 -108 -19v-540h217v-99h-217v-372z" />
<glyph unicode="&#xd1;" horiz-adv-x="1454" d="M25 0v68l57 14q57 14 73.5 43t16.5 141v908q0 98 -16.5 123.5t-73.5 39.5l-57 15v67h622l504 -710h8v430q0 88 -8 123.5t-25.5 48t-70.5 24.5l-70 17v67h440v-67l-57 -15q-57 -14 -73.5 -42.5t-16.5 -141.5v-1153h-174l-805 1147h-8v-866q0 -88 8 -125t26.5 -49.5 t69.5 -24.5l66 -14v-68h-436zM444 1530q37 100 59.5 148t61.5 85t88 37q43 0 149.5 -25.5t151.5 -25.5q35 0 56.5 15.5t50.5 60.5l63 -33q-23 -66 -34 -94.5t-31.5 -70.5t-39 -59.5t-45 -31.5t-59.5 -14q-43 0 -150.5 25.5t-152.5 25.5q-33 0 -54 -14.5t-50 -61.5z" />
<glyph unicode="&#xd2;" horiz-adv-x="1531" d="M45 692q0 195 66.5 345.5t176 236.5t232.5 128t252 42q139 0 262 -39t227.5 -120t165 -224t60.5 -334q0 -197 -66.5 -347.5t-176 -235.5t-232.5 -127t-252 -42q-137 0 -262 43t-227.5 126t-164 225.5t-61.5 322.5zM510 1704q0 57 36 100t89 43q66 0 125 -59l239 -240 l-18 -41l-367 72q-51 10 -77.5 46t-26.5 79zM520 741q0 -276 26.5 -422.5t77 -198.5t144.5 -52q88 0 138 46t78 181t28 383q0 276 -28 424.5t-79 199t-141 50.5q-84 0 -134 -45t-80 -182.5t-30 -383.5z" />
<glyph unicode="&#xd3;" horiz-adv-x="1531" d="M45 692q0 195 66.5 345.5t176 236.5t232.5 128t252 42q139 0 262 -39t227.5 -120t165 -224t60.5 -334q0 -197 -66.5 -347.5t-176 -235.5t-232.5 -127t-252 -42q-137 0 -262 43t-227.5 126t-164 225.5t-61.5 322.5zM520 741q0 -276 26.5 -422.5t77 -198.5t144.5 -52 q88 0 138 46t78 181t28 383q0 276 -28 424.5t-79 199t-141 50.5q-84 0 -134 -45t-80 -182.5t-30 -383.5zM553 1548l240 240q59 59 125 59q53 0 88.5 -43t35.5 -100q0 -43 -26.5 -79t-77.5 -46l-367 -72z" />
<glyph unicode="&#xd4;" horiz-adv-x="1531" d="M45 692q0 195 66.5 345.5t176 236.5t232.5 128t252 42q139 0 262 -39t227.5 -120t165 -224t60.5 -334q0 -197 -66.5 -347.5t-176 -235.5t-232.5 -127t-252 -42q-137 0 -262 43t-227.5 126t-164 225.5t-61.5 322.5zM459 1534l250 301h120l252 -301l-26 -41l-285 109 l-285 -109zM520 741q0 -276 26.5 -422.5t77 -198.5t144.5 -52q88 0 138 46t78 181t28 383q0 276 -28 424.5t-79 199t-141 50.5q-84 0 -134 -45t-80 -182.5t-30 -383.5z" />
<glyph unicode="&#xd5;" horiz-adv-x="1531" d="M45 692q0 195 66.5 345.5t176 236.5t232.5 128t252 42q139 0 262 -39t227.5 -120t165 -224t60.5 -334q0 -197 -66.5 -347.5t-176 -235.5t-232.5 -127t-252 -42q-137 0 -262 43t-227.5 126t-164 225.5t-61.5 322.5zM432 1530q37 100 59.5 148t61.5 85t88 37 q43 0 149.5 -25.5t151.5 -25.5q35 0 56.5 15.5t50.5 60.5l63 -33q-23 -66 -34 -94.5t-31.5 -70.5t-39 -59.5t-45 -31.5t-59.5 -14q-43 0 -150.5 25.5t-152.5 25.5q-33 0 -54.5 -14.5t-49.5 -61.5zM520 741q0 -276 26.5 -422.5t77 -198.5t144.5 -52q88 0 138 46t78 181 t28 383q0 276 -28 424.5t-79 199t-141 50.5q-84 0 -134 -45t-80 -182.5t-30 -383.5z" />
<glyph unicode="&#xd6;" horiz-adv-x="1531" d="M45 692q0 195 66.5 345.5t176 236.5t232.5 128t252 42q139 0 262 -39t227.5 -120t165 -224t60.5 -334q0 -197 -66.5 -347.5t-176 -235.5t-232.5 -127t-252 -42q-137 0 -262 43t-227.5 126t-164 225.5t-61.5 322.5zM362 1669q0 78 52.5 127t130.5 49t131 -49t53 -127 t-53 -127t-131 -49t-130.5 49t-52.5 127zM520 741q0 -276 26.5 -422.5t77 -198.5t144.5 -52q88 0 138 46t78 181t28 383q0 276 -28 424.5t-79 199t-141 50.5q-84 0 -134 -45t-80 -182.5t-30 -383.5zM801 1669q0 78 52 127t130 49t130 -49t52 -127t-52 -127t-130 -49t-130 49 t-52 127z" />
<glyph unicode="&#xd7;" horiz-adv-x="909" d="M78 403l293 310l-279 297l94 88l273 -291l274 291l94 -88l-278 -297l293 -310l-94 -88l-289 303l-287 -303z" />
<glyph unicode="&#xd8;" horiz-adv-x="1531" d="M45 692q0 195 66.5 345.5t176 236.5t232.5 128t252 42q211 0 377 -90l96 141h117l-131 -192q256 -193 256 -576q0 -197 -66.5 -347.5t-176 -235.5t-232.5 -127t-252 -42q-203 0 -369 91l-133 -197h-117l168 248q-264 198 -264 575zM516 741q0 -166 10 -305l459 676 q-27 135 -80 187.5t-141 52.5q-84 0 -135 -45t-82 -182.5t-31 -383.5zM547 295q27 -129 79 -178t142 -49q88 0 139 46t80 181t29 383q0 158 -10 291z" />
<glyph unicode="&#xd9;" horiz-adv-x="1468" d="M20 1352v67h750v-67l-57 -15q-57 -14 -73.5 -39.5t-16.5 -123.5v-775q0 -145 65.5 -208.5t224.5 -63.5q272 0 273 307v705q0 88 -8.5 123.5t-25.5 48t-71 24.5l-69 17v67h436v-67l-57 -15q-39 -10 -53.5 -20t-23.5 -47t-9 -117v-735q0 -199 -129 -321t-379 -122 q-629 0 -629 478v721q0 98 -16.5 123.5t-73.5 39.5zM553 1704q0 57 36 100t89 43q66 0 125 -59l239 -240l-18 -41l-367 72q-51 10 -77.5 46t-26.5 79z" />
<glyph unicode="&#xda;" horiz-adv-x="1468" d="M20 1352v67h750v-67l-57 -15q-57 -14 -73.5 -39.5t-16.5 -123.5v-775q0 -145 65.5 -208.5t224.5 -63.5q272 0 273 307v705q0 88 -8.5 123.5t-25.5 48t-71 24.5l-69 17v67h436v-67l-57 -15q-39 -10 -53.5 -20t-23.5 -47t-9 -117v-735q0 -199 -129 -321t-379 -122 q-629 0 -629 478v721q0 98 -16.5 123.5t-73.5 39.5zM670 1548l239 240q59 59 125 59q53 0 89 -43t36 -100q0 -43 -26.5 -79t-77.5 -46l-367 -72z" />
<glyph unicode="&#xdb;" horiz-adv-x="1468" d="M20 1352v67h750v-67l-57 -15q-57 -14 -73.5 -39.5t-16.5 -123.5v-775q0 -145 65.5 -208.5t224.5 -63.5q272 0 273 307v705q0 88 -8.5 123.5t-25.5 48t-71 24.5l-69 17v67h436v-67l-57 -15q-39 -10 -53.5 -20t-23.5 -47t-9 -117v-735q0 -199 -129 -321t-379 -122 q-629 0 -629 478v721q0 98 -16.5 123.5t-73.5 39.5zM549 1534l250 301h121l251 -301l-26 -41l-285 109l-285 -109z" />
<glyph unicode="&#xdc;" horiz-adv-x="1468" d="M20 1352v67h750v-67l-57 -15q-57 -14 -73.5 -39.5t-16.5 -123.5v-775q0 -145 65.5 -208.5t224.5 -63.5q272 0 273 307v705q0 88 -8.5 123.5t-25.5 48t-71 24.5l-69 17v67h436v-67l-57 -15q-39 -10 -53.5 -20t-23.5 -47t-9 -117v-735q0 -199 -129 -321t-379 -122 q-629 0 -629 478v721q0 98 -16.5 123.5t-73.5 39.5zM436 1669q0 78 52.5 127t130 49t131 -49t53.5 -127t-53.5 -127t-131 -49t-130 49t-52.5 127zM874 1669q0 78 52.5 127t130.5 49t130 -49t52 -127t-52 -127t-130 -49t-130.5 49t-52.5 127z" />
<glyph unicode="&#xdd;" horiz-adv-x="1376" d="M-8 1352v67h792v-67l-63 -15q-76 -18 -76 -88q0 -41 37 -121l182 -393h10l162 371q37 82 37 143q0 63 -86 88l-51 15v67h448v-67l-38 -13q-74 -25 -152 -190l-256 -551v-352q0 -102 15.5 -126t80.5 -38l64 -14v-68h-774v68l63 14q66 14 81 37.5t15 126.5v342l-309 579 q-51 96 -77.5 127t-67.5 45zM567 1548l240 240q59 59 125 59q53 0 89 -43t36 -100q0 -43 -26.5 -79t-78.5 -46l-366 -72z" />
<glyph unicode="&#xde;" horiz-adv-x="1400" d="M25 0v68l57 14q57 14 73.5 39.5t16.5 124.5v928q0 98 -16.5 123.5t-73.5 39.5l-57 15v67h755v-67l-63 -15q-57 -12 -73.5 -38.5t-16.5 -124.5v-39h127q610 0 610 -414q0 -178 -132 -300t-378 -122q-90 0 -170 27v67q129 0 176 64.5t47 253t-44 260t-132 71.5 q-66 0 -104 -16v-780q0 -94 18.5 -120t77.5 -38l108 -20v-68h-806z" />
<glyph unicode="&#xdf;" horiz-adv-x="1427" d="M-6 934v57l143 84v19q0 219 167 344t441 125q227 0 355.5 -77t128.5 -198q0 -84 -53.5 -152.5t-116 -103.5t-115.5 -70.5t-53 -60t30.5 -47.5t127.5 -78l88 -49q266 -152 266 -367q0 -170 -113.5 -276.5t-316.5 -106.5q-164 0 -252 48.5t-88 136.5q0 61 36 98t101 37 q74 0 104.5 -39t36.5 -119q4 -39 19.5 -54t64.5 -15q51 0 86 27.5t35 78.5q0 57 -46 101.5t-191 140.5q-123 82 -162 143.5t-39 130.5q0 55 35 130t76.5 136.5t76.5 143.5t35 151q0 217 -172 217q-94 0 -145.5 -57t-51.5 -211v-1022q0 -72 6.5 -87t34.5 -21l29 -6v-66h-590 v66l39 10q61 16 73.5 33.5t12.5 89.5v735h-143z" />
<glyph unicode="&#xe0;" horiz-adv-x="1136" d="M29 246q0 135 95 210.5t314 129.5l162 41v161q0 133 -27.5 177.5t-95.5 44.5q-37 0 -51 -13.5t-16 -56.5q-8 -115 -52.5 -160t-134.5 -45q-156 0 -155 142q0 104 120.5 164.5t372.5 60.5q434 0 434 -291v-532q0 -68 8.5 -95.5t36.5 -42.5q39 -20 95 -20v-62 q-111 -84 -275 -84q-195 0 -237 129h-9q-109 -129 -276 -129q-145 0 -227 72t-82 199zM311 1376q0 57 36 100.5t89 43.5q66 0 125 -60l240 -239l-19 -41l-366 71q-51 10 -78 46t-27 79zM414 315q0 -170 112 -170q51 0 74 41v326l-61 -4q-70 -4 -97.5 -46.5t-27.5 -146.5z " />
<glyph unicode="&#xe1;" horiz-adv-x="1136" d="M29 246q0 135 95 210.5t314 129.5l162 41v161q0 133 -27.5 177.5t-95.5 44.5q-37 0 -51 -13.5t-16 -56.5q-8 -115 -52.5 -160t-134.5 -45q-156 0 -155 142q0 104 120.5 164.5t372.5 60.5q434 0 434 -291v-532q0 -68 8.5 -95.5t36.5 -42.5q39 -20 95 -20v-62 q-111 -84 -275 -84q-195 0 -237 129h-9q-109 -129 -276 -129q-145 0 -227 72t-82 199zM338 1221l240 239q59 59 124 60q53 0 89 -43t36 -101q0 -43 -26.5 -78.5t-77.5 -46.5l-367 -71zM414 315q0 -170 112 -170q51 0 74 41v326l-61 -4q-70 -4 -97.5 -46.5t-27.5 -146.5z" />
<glyph unicode="&#xe2;" horiz-adv-x="1136" d="M29 246q0 135 95 210.5t314 129.5l162 41v161q0 133 -27.5 177.5t-95.5 44.5q-37 0 -51 -13.5t-16 -56.5q-8 -115 -52.5 -160t-134.5 -45q-156 0 -155 142q0 104 120.5 164.5t372.5 60.5q434 0 434 -291v-532q0 -68 8.5 -95.5t36.5 -42.5q39 -20 95 -20v-62 q-111 -84 -275 -84q-195 0 -237 129h-9q-109 -129 -276 -129q-145 0 -227 72t-82 199zM248 1206l250 301h120l252 -301l-26 -41l-285 109l-285 -109zM414 315q0 -170 112 -170q51 0 74 41v326l-61 -4q-70 -4 -97.5 -46.5t-27.5 -146.5z" />
<glyph unicode="&#xe3;" horiz-adv-x="1136" d="M29 246q0 135 95 210.5t314 129.5l162 41v161q0 133 -27.5 177.5t-95.5 44.5q-37 0 -51 -13.5t-16 -56.5q-8 -115 -52.5 -160t-134.5 -45q-156 0 -155 142q0 104 120.5 164.5t372.5 60.5q434 0 434 -291v-532q0 -68 8.5 -95.5t36.5 -42.5q39 -20 95 -20v-62 q-111 -84 -275 -84q-195 0 -237 129h-9q-109 -129 -276 -129q-145 0 -227 72t-82 199zM221 1202q37 100 59.5 148.5t61.5 85.5t88 37q43 0 149.5 -26t151.5 -26q35 0 56.5 15.5t50.5 60.5l63 -33q-23 -66 -34 -94.5t-31.5 -70.5t-39 -59t-45 -31.5t-59.5 -14.5 q-43 0 -150.5 25.5t-152.5 25.5q-33 0 -54.5 -14t-49.5 -62zM414 315q0 -170 112 -170q51 0 74 41v326l-61 -4q-70 -4 -97.5 -46.5t-27.5 -146.5z" />
<glyph unicode="&#xe4;" horiz-adv-x="1136" d="M29 246q0 135 95 210.5t314 129.5l162 41v161q0 133 -27.5 177.5t-95.5 44.5q-37 0 -51 -13.5t-16 -56.5q-8 -115 -52.5 -160t-134.5 -45q-156 0 -155 142q0 104 120.5 164.5t372.5 60.5q434 0 434 -291v-532q0 -68 8.5 -95.5t36.5 -42.5q39 -20 95 -20v-62 q-111 -84 -275 -84q-195 0 -237 129h-9q-109 -129 -276 -129q-145 0 -227 72t-82 199zM147 1341.5q0 77.5 52.5 127t130.5 49.5t131 -49.5t53 -127t-53 -127t-131 -49.5t-130.5 49.5t-52.5 127zM414 315q0 -170 112 -170q51 0 74 41v326l-61 -4q-70 -4 -97.5 -46.5 t-27.5 -146.5zM586 1341.5q0 77.5 52 127t130 49.5t130 -49.5t52 -127t-52 -127t-130 -49.5t-130 49.5t-52 127z" />
<glyph unicode="&#xe5;" horiz-adv-x="1136" d="M29 246q0 135 95 210.5t314 129.5l162 41v161q0 133 -27.5 177.5t-95.5 44.5q-37 0 -51 -13.5t-16 -56.5q-8 -115 -52.5 -160t-134.5 -45q-156 0 -155 142q0 104 120.5 164.5t372.5 60.5q434 0 434 -291v-532q0 -68 8.5 -95.5t36.5 -42.5q39 -20 95 -20v-62 q-111 -84 -275 -84q-195 0 -237 129h-9q-109 -129 -276 -129q-145 0 -227 72t-82 199zM326 1350q0 86 61.5 141t153.5 55q94 0 154.5 -53t60.5 -143q0 -86 -61.5 -140.5t-153.5 -54.5q-100 0 -157.5 53.5t-57.5 141.5zM414 315q0 -170 112 -170q51 0 74 41v326l-61 -4 q-70 -4 -97.5 -46.5t-27.5 -146.5zM434 1350q0 -49 30 -83t77 -34t76.5 33.5t29.5 83.5q0 51 -29.5 84.5t-76.5 33.5q-45 0 -76 -33.5t-31 -84.5z" />
<glyph unicode="&#xe6;" horiz-adv-x="1638" d="M29 242q0 133 93 202.5t316 124.5l158 41v178q0 123 -27.5 172.5t-91.5 49.5q-37 0 -51 -13.5t-16 -56.5q-8 -115 -52.5 -160t-134.5 -45q-156 0 -155 146q0 100 117.5 160.5t340.5 60.5q217 0 316 -125q131 125 305 125q217 0 341 -132t124 -403h-649q12 -219 99 -303 t236 -84q139 0 279 74v-72q-70 -86 -183.5 -146.5t-256.5 -60.5q-283 0 -418 156q-139 -156 -365 -156q-158 0 -241.5 69t-83.5 198zM414 311q0 -96 29.5 -131t82.5 -35q45 0 76 31t43 74q-43 102 -49 246l-57 -4q-70 -4 -97.5 -40.5t-27.5 -140.5zM963 651l284 19 q0 190 -27.5 267t-101.5 77q-68 0 -110.5 -86.5t-44.5 -276.5z" />
<glyph unicode="&#xe7;" horiz-adv-x="1048" d="M29 539q0 152 57 265.5t153.5 175.5t206 92t232.5 30q162 0 255 -51.5t93 -151.5q0 -72 -43 -116t-115 -44q-152 0 -168 187q-4 53 -18 67.5t-64 14.5q-201 0 -200 -373q0 -227 72.5 -341t242.5 -114q129 0 281 72v-72q-53 -78 -169 -140.5t-276 -64.5l-49 -63 q92 -8 140.5 -43t48.5 -84q0 -174 -381 -207v51q174 35 174 101q0 51 -99 55l-10 16l88 181q-217 23 -334.5 169t-117.5 388z" />
<glyph unicode="&#xe8;" horiz-adv-x="1105" d="M29 539q0 262 166.5 412.5t388.5 150.5q481 0 495 -514h-667q8 -236 89 -322t251 -86q147 0 290 74v-72q-72 -86 -191.5 -146.5t-266.5 -60.5q-274 0 -414.5 146t-140.5 418zM315 1376q0 57 36 100.5t89 43.5q66 0 125 -60l240 -239l-19 -41l-366 71q-51 10 -78 46 t-27 79zM412 672l286 18q0 186 -28.5 255t-106.5 69q-143 0 -151 -342z" />
<glyph unicode="&#xe9;" horiz-adv-x="1105" d="M29 539q0 262 166.5 412.5t388.5 150.5q481 0 495 -514h-667q8 -236 89 -322t251 -86q147 0 290 74v-72q-72 -86 -191.5 -146.5t-266.5 -60.5q-274 0 -414.5 146t-140.5 418zM358 1221l240 239q59 59 125 60q53 0 89 -43t36 -101q0 -43 -26.5 -78.5t-78.5 -46.5l-366 -71 zM412 672l286 18q0 186 -28.5 255t-106.5 69q-143 0 -151 -342z" />
<glyph unicode="&#xea;" horiz-adv-x="1105" d="M29 539q0 262 166.5 412.5t388.5 150.5q481 0 495 -514h-667q8 -236 89 -322t251 -86q147 0 290 74v-72q-72 -86 -191.5 -146.5t-266.5 -60.5q-274 0 -414.5 146t-140.5 418zM270 1206l250 301h121l252 -301l-27 -41l-284 109l-285 -109zM412 672l286 18q0 186 -28.5 255 t-106.5 69q-143 0 -151 -342z" />
<glyph unicode="&#xeb;" horiz-adv-x="1105" d="M29 539q0 262 166.5 412.5t388.5 150.5q481 0 495 -514h-667q8 -236 89 -322t251 -86q147 0 290 74v-72q-72 -86 -191.5 -146.5t-266.5 -60.5q-274 0 -414.5 146t-140.5 418zM176 1341.5q0 77.5 52.5 127t130 49.5t131 -49.5t53.5 -127t-53.5 -127t-131 -49.5t-130 49.5 t-52.5 127zM412 672l286 18q0 186 -28.5 255t-106.5 69q-143 0 -151 -342zM614 1341.5q0 77.5 52.5 127t130 49.5t130 -49.5t52.5 -127t-52.5 -127t-130 -49.5t-130 49.5t-52.5 127z" />
<glyph unicode="&#xec;" horiz-adv-x="669" d="M2 1004v47l512 51l27 -19q-8 -129 -9 -256v-628q0 -72 12.5 -89.5t73.5 -33.5l39 -10v-66h-645v66l39 10q61 16 73.5 33.5t12.5 89.5v610q0 66 -11 87.5t-58 57.5zM74 1376q0 57 35.5 100.5t89.5 43.5q66 0 125 -60l239 -239l-18 -41l-367 71q-51 10 -77.5 46t-26.5 79z " />
<glyph unicode="&#xed;" horiz-adv-x="669" d="M2 1004v47l512 51l27 -19q-8 -129 -9 -256v-628q0 -72 12.5 -89.5t73.5 -33.5l39 -10v-66h-645v66l39 10q61 16 73.5 33.5t12.5 89.5v610q0 66 -11 87.5t-58 57.5zM98 1221l240 239q59 59 125 60q53 0 89 -43t36 -101q0 -43 -26.5 -78.5t-78.5 -46.5l-366 -71z" />
<glyph unicode="&#xee;" horiz-adv-x="669" d="M2 1004v47l512 51l27 -19q-8 -129 -9 -256v-628q0 -72 12.5 -89.5t73.5 -33.5l39 -10v-66h-645v66l39 10q61 16 73.5 33.5t12.5 89.5v610q0 66 -11 87.5t-58 57.5zM20 1206l250 301h121l252 -301l-27 -41l-284 109l-285 -109z" />
<glyph unicode="&#xef;" horiz-adv-x="669" d="M-63 1341.5q0 77.5 52 127t130 49.5t131 -49.5t53 -127t-53 -127t-131 -49.5t-130 49.5t-52 127zM2 1004v47l512 51l27 -19q-8 -129 -9 -256v-628q0 -72 12.5 -89.5t73.5 -33.5l39 -10v-66h-645v66l39 10q61 16 73.5 33.5t12.5 89.5v610q0 66 -11 87.5t-58 57.5z M375 1341.5q0 77.5 52 127t130 49.5t130 -49.5t52 -127t-52 -127t-130 -49.5t-130 49.5t-52 127z" />
<glyph unicode="&#xf0;" horiz-adv-x="1224" d="M29 522q0 145 52 258t137 174.5t174 91t179 29.5q100 0 162 -43q-72 154 -151 242l-236 -111l-41 86l205 97q-94 84 -246 157l23 70q221 -51 401 -143l234 110l41 -86l-177 -84q410 -266 410 -743q0 -180 -49 -312.5t-136 -203t-186.5 -103.5t-216.5 -33 q-246 0 -412.5 138.5t-166.5 408.5zM438 559q0 -217 21.5 -326.5t54.5 -137t96 -27.5q43 0 67.5 10t52.5 51t40 136t12 249q0 160 -11 258t-37.5 142t-54.5 56.5t-75 12.5q-86 0 -126 -86t-40 -338z" />
<glyph unicode="&#xf1;" d="M2 1004v47l494 51l26 -19l-4 -137h10q205 156 400 156q123 0 194.5 -70.5t71.5 -204.5v-628q0 -72 12.5 -89.5t73.5 -33.5l39 -10v-66h-627v66l33 8q53 14 63.5 30.5t10.5 94.5v528q0 82 -31 116t-92 34q-70 0 -144 -13v-665q0 -78 10.5 -94.5t63.5 -30.5l33 -8v-66h-627 v66l39 10q61 16 73.5 33.5t12.5 89.5v610q0 66 -11 87.5t-58 57.5zM338 1202q37 100 59.5 148.5t61.5 85.5t88 37q43 0 149.5 -26t151.5 -26q35 0 56.5 15.5t49.5 60.5l64 -33q-23 -66 -34 -94.5t-31.5 -70.5t-39 -59t-45 -31.5t-59.5 -14.5q-43 0 -150.5 25.5t-152.5 25.5 q-33 0 -54.5 -14t-50.5 -62z" />
<glyph unicode="&#xf2;" horiz-adv-x="1220" d="M29 535q0 147 50 260.5t134 178t184.5 96.5t212.5 32q244 0 413 -144.5t169 -414.5q0 -150 -49 -262.5t-133 -177t-184.5 -96.5t-215.5 -32q-246 0 -413.5 145t-167.5 415zM332 1376q0 57 35.5 100.5t89.5 43.5q66 0 125 -60l239 -239l-18 -41l-367 71q-51 10 -77.5 46 t-26.5 79zM438 571q0 -219 20.5 -329.5t54.5 -142t101 -31.5q41 0 67 12t51.5 55t37.5 140.5t12 250.5q0 160 -11 260.5t-37.5 147.5t-54.5 61.5t-75 14.5q-55 0 -89 -32t-55.5 -131.5t-21.5 -275.5z" />
<glyph unicode="&#xf3;" horiz-adv-x="1220" d="M29 535q0 147 50 260.5t134 178t184.5 96.5t212.5 32q244 0 413 -144.5t169 -414.5q0 -150 -49 -262.5t-133 -177t-184.5 -96.5t-215.5 -32q-246 0 -413.5 145t-167.5 415zM385 1221l240 239q59 59 125 60q53 0 88.5 -43t35.5 -101q0 -43 -26.5 -78.5t-77.5 -46.5 l-367 -71zM438 571q0 -219 20.5 -329.5t54.5 -142t101 -31.5q41 0 67 12t51.5 55t37.5 140.5t12 250.5q0 160 -11 260.5t-37.5 147.5t-54.5 61.5t-75 14.5q-55 0 -89 -32t-55.5 -131.5t-21.5 -275.5z" />
<glyph unicode="&#xf4;" horiz-adv-x="1220" d="M29 535q0 147 50 260.5t134 178t184.5 96.5t212.5 32q244 0 413 -144.5t169 -414.5q0 -150 -49 -262.5t-133 -177t-184.5 -96.5t-215.5 -32q-246 0 -413.5 145t-167.5 415zM295 1206l250 301h121l252 -301l-27 -41l-285 109l-284 -109zM438 571q0 -219 20.5 -329.5 t54.5 -142t101 -31.5q41 0 67 12t51.5 55t37.5 140.5t12 250.5q0 160 -11 260.5t-37.5 147.5t-54.5 61.5t-75 14.5q-55 0 -89 -32t-55.5 -131.5t-21.5 -275.5z" />
<glyph unicode="&#xf5;" horiz-adv-x="1220" d="M29 535q0 147 50 260.5t134 178t184.5 96.5t212.5 32q244 0 413 -144.5t169 -414.5q0 -150 -49 -262.5t-133 -177t-184.5 -96.5t-215.5 -32q-246 0 -413.5 145t-167.5 415zM272 1202q37 100 59.5 148.5t61.5 85.5t88 37q43 0 149.5 -26t151.5 -26q35 0 56.5 15.5 t50.5 60.5l63 -33q-23 -66 -34 -94.5t-31.5 -70.5t-39 -59t-45 -31.5t-59.5 -14.5q-43 0 -150.5 25.5t-152.5 25.5q-33 0 -54 -14t-50 -62zM438 571q0 -219 20.5 -329.5t54.5 -142t101 -31.5q41 0 67 12t51.5 55t37.5 140.5t12 250.5q0 160 -11 260.5t-37.5 147.5 t-54.5 61.5t-75 14.5q-55 0 -89 -32t-55.5 -131.5t-21.5 -275.5z" />
<glyph unicode="&#xf6;" horiz-adv-x="1220" d="M29 535q0 147 50 260.5t134 178t184.5 96.5t212.5 32q244 0 413 -144.5t169 -414.5q0 -150 -49 -262.5t-133 -177t-184.5 -96.5t-215.5 -32q-246 0 -413.5 145t-167.5 415zM207 1341.5q0 77.5 52 127t130 49.5t131 -49.5t53 -127t-53 -127t-131 -49.5t-130 49.5t-52 127z M438 571q0 -219 20.5 -329.5t54.5 -142t101 -31.5q41 0 67 12t51.5 55t37.5 140.5t12 250.5q0 160 -11 260.5t-37.5 147.5t-54.5 61.5t-75 14.5q-55 0 -89 -32t-55.5 -131.5t-21.5 -275.5zM645 1341.5q0 77.5 52.5 127t130 49.5t130 -49.5t52.5 -127t-52.5 -127t-130 -49.5 t-130 49.5t-52.5 127z" />
<glyph unicode="&#xf7;" horiz-adv-x="997" d="M78 662v129h842v-129h-842zM336 414q0 70 48 118t118 48q68 0 118 -48.5t50 -117.5q0 -68 -50.5 -117t-117.5 -49q-70 0 -118 49t-48 117zM336 1040q0 70 48 118t118 48q68 0 118 -48t50 -118q0 -68 -50.5 -117t-117.5 -49q-70 0 -118 49t-48 117z" />
<glyph unicode="&#xf8;" horiz-adv-x="1220" d="M29 535q0 147 50 260.5t134 178t184.5 96.5t212.5 32q162 0 301 -70l127 176h111l-160 -223q203 -156 203 -442q0 -150 -49 -262.5t-133 -177t-184.5 -96.5t-215.5 -32q-162 0 -297 66l-123 -172h-110l156 219q-207 150 -207 447zM422 483q0 -53 4 -131l354 496 q-20 100 -61 131t-115 31q-88 0 -136 -116q-46 -111 -46 -387v-24zM442 221q18 -92 57.5 -122.5t114.5 -30.5q41 0 72 21.5t58.5 75.5t41.5 166q13 98 13 237v40q0 41 -4 107z" />
<glyph unicode="&#xf9;" d="M2 1004v47l504 51l26 -19v-733q0 -88 30 -122.5t91 -34.5q55 0 146 26v596q0 68 -11.5 91.5t-58.5 54.5l-65 43v47l503 51l27 -19v-817q0 -82 10 -102.5t60 -40.5l51 -21v-57l-479 -70l-27 19l4 143h-10q-102 -78 -193.5 -120t-206.5 -42q-123 0 -194.5 71t-71.5 204v565 q0 70 -10 91.5t-59 54.5zM401 1376q0 57 36 100.5t89 43.5q66 0 125 -60l240 -239l-19 -41l-366 71q-51 10 -78 46t-27 79z" />
<glyph unicode="&#xfa;" d="M2 1004v47l504 51l26 -19v-733q0 -88 30 -122.5t91 -34.5q55 0 146 26v596q0 68 -11.5 91.5t-58.5 54.5l-65 43v47l503 51l27 -19v-817q0 -82 10 -102.5t60 -40.5l51 -21v-57l-479 -70l-27 19l4 143h-10q-102 -78 -193.5 -120t-206.5 -42q-123 0 -194.5 71t-71.5 204v565 q0 70 -10 91.5t-59 54.5zM434 1221l240 239q59 59 125 60q53 0 89 -43t36 -101q0 -43 -27 -78.5t-78 -46.5l-366 -71z" />
<glyph unicode="&#xfb;" d="M2 1004v47l504 51l26 -19v-733q0 -88 30 -122.5t91 -34.5q55 0 146 26v596q0 68 -11.5 91.5t-58.5 54.5l-65 43v47l503 51l27 -19v-817q0 -82 10 -102.5t60 -40.5l51 -21v-57l-479 -70l-27 19l4 143h-10q-102 -78 -193.5 -120t-206.5 -42q-123 0 -194.5 71t-71.5 204v565 q0 70 -10 91.5t-59 54.5zM346 1206l250 301h121l252 -301l-27 -41l-285 109l-284 -109z" />
<glyph unicode="&#xfc;" d="M2 1004v47l504 51l26 -19v-733q0 -88 30 -122.5t91 -34.5q55 0 146 26v596q0 68 -11.5 91.5t-58.5 54.5l-65 43v47l503 51l27 -19v-817q0 -82 10 -102.5t60 -40.5l51 -21v-57l-479 -70l-27 19l4 143h-10q-102 -78 -193.5 -120t-206.5 -42q-123 0 -194.5 71t-71.5 204v565 q0 70 -10 91.5t-59 54.5zM242 1341.5q0 77.5 52 127t130 49.5t131 -49.5t53 -127t-53 -127t-131 -49.5t-130 49.5t-52 127zM680 1341.5q0 77.5 52 127t130 49.5t130 -49.5t52 -127t-52 -127t-130 -49.5t-130 49.5t-52 127z" />
<glyph unicode="&#xfd;" horiz-adv-x="1202" d="M-8 1010v65h682v-65l-56 -15q-68 -18 -67 -90q0 -47 29 -114l161 -392h9l151 392q29 74 29 122q0 63 -70 82l-57 15v65h407v-65l-41 -15q-39 -12 -59 -44.5t-70 -147.5l-399 -922q-72 -166 -147.5 -237.5t-214.5 -71.5q-98 0 -164 46t-66 122q0 61 37 96t100 35 q70 0 104 -25.5t50 -89.5q12 -43 39 -43q35 0 67.5 42t85.5 159l19 41l-406 868q-49 106 -70.5 136t-51.5 40zM498 1221l239 239q59 59 125 60q53 0 89 -43t36 -101q0 -43 -26.5 -78.5t-77.5 -46.5l-367 -71z" />
<glyph unicode="&#xfe;" horiz-adv-x="1310" d="M2 1450v55l510 45l27 -18q-6 -102 -7 -240v-131l-6 -207h11q164 147 337 148q164 0 282 -125t118 -379q0 -317 -164 -470t-436 -153q-80 0 -146 17q4 -47 4 -121v-100q0 -72 11.5 -90.5t68.5 -30.5l54 -12v-66h-654v66l39 10q61 16 73.5 33.5t12.5 89.5v1489 q0 84 -10 108.5t-55 46.5zM532 137q51 -70 142 -69q70 0 108.5 29.5t63 129t24.5 283.5q0 211 -51 296t-155 85q-57 0 -132 -25v-729z" />
<glyph unicode="&#xff;" horiz-adv-x="1202" d="M-8 1010v65h682v-65l-56 -15q-68 -18 -67 -90q0 -47 29 -114l161 -392h9l151 392q29 74 29 122q0 63 -70 82l-57 15v65h407v-65l-41 -15q-39 -12 -59 -44.5t-70 -147.5l-399 -922q-72 -166 -147.5 -237.5t-214.5 -71.5q-98 0 -164 46t-66 122q0 61 37 96t100 35 q70 0 104 -25.5t50 -89.5q12 -43 39 -43q35 0 67.5 42t85.5 159l19 41l-406 868q-49 106 -70.5 136t-51.5 40zM293 1341.5q0 77.5 52 127t130 49.5t131 -49.5t53 -127t-53 -127t-131 -49.5t-130 49.5t-52 127zM731 1341.5q0 77.5 52.5 127t130 49.5t130 -49.5t52.5 -127 t-52.5 -127t-130 -49.5t-130 49.5t-52.5 127z" />
<glyph unicode="&#x152;" horiz-adv-x="2095" d="M45 692q0 188 64.5 331.5t175 227.5t244 126t284.5 42h1184l18 -440h-71q-63 143 -127 231q-51 70 -97.5 88.5t-146.5 18.5q-86 0 -158 -21v-512h27q94 0 128 13.5t52 46.5q43 70 70 157h69v-544h-69q-25 86 -70 170q-18 37 -50 48t-132 11h-25v-401q0 -125 25.5 -154 t150.5 -29q115 0 160 25t102 113q53 80 140 280h73l-28 -520h-1239q-154 0 -285 37t-238.5 115.5t-169 217t-61.5 322.5zM520 741q0 -272 23.5 -407t81 -190.5t174.5 -55.5q92 0 127 37t35 123v903q0 94 -40 137t-141 43q-96 0 -149 -44t-82 -174t-29 -372z" />
<glyph unicode="&#x153;" horiz-adv-x="1843" d="M29 535q0 147 50 260.5t135 178t186.5 96.5t213.5 32q215 0 367 -156q145 156 360 156q461 0 476 -514h-664q8 -238 87 -323t249 -85q147 0 291 74v-72q-72 -86 -192 -146.5t-267 -60.5q-233 0 -358 138q-150 -137 -365 -138q-236 0 -402.5 145t-166.5 415zM438 571 q0 -219 20.5 -329.5t54.5 -142t101 -31.5q41 0 66 12t50.5 55t36.5 140.5t11 250.5q0 211 -22.5 320.5t-56 136.5t-95.5 27q-55 0 -89 -32t-55.5 -131.5t-21.5 -275.5zM1153 672l283 18q0 186 -29 255t-107 69q-139 0 -147 -342z" />
<glyph unicode="&#x178;" horiz-adv-x="1376" d="M-8 1352v67h792v-67l-63 -15q-76 -18 -76 -88q0 -41 37 -121l182 -393h10l162 371q37 82 37 143q0 63 -86 88l-51 15v67h448v-67l-38 -13q-74 -25 -152 -190l-256 -551v-352q0 -102 15.5 -126t80.5 -38l64 -14v-68h-774v68l63 14q66 14 81 37.5t15 126.5v342l-309 579 q-51 96 -77.5 127t-67.5 45zM385 1669q0 78 52 127t130 49t131.5 -49t53.5 -127t-53.5 -127t-131.5 -49t-130 49t-52 127zM823 1669q0 78 52.5 127t130 49t130 -49t52.5 -127t-52.5 -127t-130 -49t-130 49t-52.5 127z" />
<glyph unicode="&#x2c6;" horiz-adv-x="1024" d="M201 1206l250 301h120l252 -301l-26 -41l-285 109l-285 -109z" />
<glyph unicode="&#x2dc;" horiz-adv-x="1024" d="M172 1202q37 100 59.5 148.5t61.5 85.5t88 37q43 0 149.5 -26t151.5 -26q35 0 56.5 15.5t49.5 60.5l64 -33q-23 -66 -34 -94.5t-31.5 -70.5t-39 -59t-45 -31.5t-59.5 -14.5q-43 0 -150.5 25.5t-152.5 25.5q-33 0 -54.5 -14t-49.5 -62z" />
<glyph unicode="&#x2013;" horiz-adv-x="813" d="M78 541v116h657v-116h-657z" />
<glyph unicode="&#x2014;" horiz-adv-x="1314" d="M78 541v116h1159v-116h-1159z" />
<glyph unicode="&#x2018;" horiz-adv-x="458" d="M43 1094q0 135 90 225t264 125l17 -53q-203 -86 -197 -226q25 20 66 21q59 0 96 -40t37 -110q0 -68 -50.5 -109.5t-123.5 -41.5q-82 0 -140.5 54.5t-58.5 154.5z" />
<glyph unicode="&#x2019;" horiz-adv-x="458" d="M43 1292q0 68 50 110t124 42q82 0 140.5 -54.5t58.5 -154.5q0 -135 -90 -225t-265 -125l-16 53q203 86 197 225q-25 -20 -66 -20q-59 0 -96 39.5t-37 109.5z" />
<glyph unicode="&#x201a;" horiz-adv-x="458" d="M43 172q0 68 50 110t124 42q82 0 140.5 -54.5t58.5 -154.5q0 -135 -90 -225.5t-265 -125.5l-16 54q203 86 197 225q-25 -20 -66 -20q-59 0 -96 39.5t-37 109.5z" />
<glyph unicode="&#x201c;" horiz-adv-x="903" d="M43 1094q0 135 90 225t264 125l17 -53q-203 -86 -197 -226q25 20 66 21q59 0 96 -40t37 -110q0 -68 -50.5 -109.5t-123.5 -41.5q-82 0 -140.5 54.5t-58.5 154.5zM487 1094q0 135 90.5 225t264.5 125l16 -53q-203 -86 -196 -226q25 20 65 21q59 0 96 -40t37 -110 q0 -68 -50 -109.5t-124 -41.5q-82 0 -140.5 54.5t-58.5 154.5z" />
<glyph unicode="&#x201d;" horiz-adv-x="903" d="M43 1292q0 68 50 110t124 42q82 0 140.5 -54.5t58.5 -154.5q0 -135 -90 -225t-265 -125l-16 53q203 86 197 225q-25 -20 -66 -20q-59 0 -96 39.5t-37 109.5zM487 1292q0 68 50.5 110t124.5 42q82 0 140 -54.5t58 -154.5q0 -135 -90 -225t-264 -125l-17 53q203 86 197 225 q-25 -20 -65 -20q-59 0 -96.5 39.5t-37.5 109.5z" />
<glyph unicode="&#x201e;" horiz-adv-x="903" d="M43 172q0 68 50 110t124 42q82 0 140.5 -54.5t58.5 -154.5q0 -135 -90 -225.5t-265 -125.5l-16 54q203 86 197 225q-25 -20 -66 -20q-59 0 -96 39.5t-37 109.5zM487 172q0 68 50.5 110t124.5 42q82 0 140 -54.5t58 -154.5q0 -135 -90 -225.5t-264 -125.5l-17 54 q203 86 197 225q-25 -20 -65 -20q-59 0 -96.5 39.5t-37.5 109.5z" />
<glyph unicode="&#x2022;" horiz-adv-x="626" d="M41 688q0 115 79 192.5t191 77.5q111 0 193 -77.5t82 -192.5q0 -106 -83 -188t-192 -82q-111 0 -190.5 80.5t-79.5 189.5z" />
<glyph unicode="&#x2026;" horiz-adv-x="1474" d="M51 176q0 82 56.5 137.5t136.5 55.5q78 0 137 -55.5t59 -137.5q0 -76 -59 -134t-137 -58q-80 0 -136.5 57t-56.5 135zM543 176q0 82 56 137.5t136 55.5q78 0 137.5 -55.5t59.5 -137.5q0 -76 -59.5 -134t-137.5 -58q-80 0 -136 57t-56 135zM1034 176q0 82 56.5 137.5 t136.5 55.5q78 0 137 -55.5t59 -137.5q0 -76 -59 -134t-137 -58q-80 0 -136.5 57t-56.5 135z" />
<glyph unicode="&#x2039;" horiz-adv-x="552" d="M43 498v39l358 405h76l-141 -422l141 -428h-76z" />
<glyph unicode="&#x203a;" horiz-adv-x="552" d="M76 92l141 428l-141 422h76l358 -405v-39l-358 -406h-76z" />
<glyph unicode="&#x20ac;" horiz-adv-x="1286" d="M31 518v109h116q-2 34 -2 68t2 69h-116v108h129q33 193 141.5 326t247.5 189.5t301 56.5q178 0 296 -63.5t118 -194.5q0 -70 -43 -110t-121 -40q-98 0 -140 56.5t-57 175.5q-8 57 -22.5 73.5t-57.5 16.5q-111 0 -166 -105.5t-63 -380.5h407l-20 -108h-389v-14 q0 -86 2 -123h364l-20 -109h-336q25 -207 107 -282.5t258 -75.5q125 0 280 82v-76q-53 -74 -178 -132.5t-297 -58.5q-256 0 -415.5 134.5t-198.5 408.5h-127z" />
<glyph unicode="&#x2122;" horiz-adv-x="1607" d="M45 1176l8 243h582l8 -243h-41q-51 119 -72 147q-23 33 -65 33h-8v-414q0 -45 6 -56.5t35 -13.5l49 -6v-51h-404v51l47 6q29 4 35 15.5t6 54.5v414h-8q-41 0 -63 -33q-29 -43 -72 -147h-43zM668 811v53l49 6q25 4 33 17.5t8 62.5v342q0 41 -7.5 53.5t-33.5 16.5l-37 6v51 h348l88 -266h2l88 266h355v-47l-37 -6q-25 -6 -32 -17.5t-7 -52.5v-358q0 -41 7 -53.5t32 -16.5l41 -6v-51h-391v51l38 6q25 4 32 16.5t7 53.5v393h-2l-164 -512h-77l-170 512h-4v-377q0 -53 7 -67.5t36 -18.5l47 -6v-51h-256z" />
<glyph unicode="&#xe000;" horiz-adv-x="1075" d="M0 1075h1075v-1075h-1075v1075z" />
<glyph unicode="&#xfb01;" d="M-6 934v57l143 84v12q0 221 147.5 348.5t446.5 127.5q174 0 267.5 -57.5t93.5 -168.5q0 -135 -148 -135q-106 0 -150 38t-55 163q-2 37 -18 50t-53 13q-59 0 -97.5 -55t-38.5 -160v-176h377l267 27l26 -19q-8 -129 -8 -256v-628q0 -72 12.5 -89.5t73.5 -33.5l39 -10v-66 h-627v66l33 8q53 14 63.5 30.5t10.5 94.5v600q0 90 -17.5 112.5t-83.5 22.5h-166v-735q0 -74 10.5 -92.5t63.5 -32.5l33 -8v-66h-627v66l39 10q61 16 73.5 33.5t12.5 89.5v735h-143z" />
<glyph unicode="&#xfb02;" horiz-adv-x="1337" d="M-6 934v57l143 84v37q0 211 149.5 331t401.5 120q229 0 299 -99l187 86l26 -18q-6 -102 -6 -240v-1093q0 -72 13.5 -89.5t78.5 -33.5l39 -10v-66h-633v66l33 8q53 14 63.5 30.5t10.5 94.5v1058q-82 25 -90 152q-2 41 -12.5 52.5t-32.5 11.5q-131 0 -132 -197v-201h220 l-31 -141h-189v-735q0 -74 10.5 -92.5t63.5 -32.5l33 -8v-66h-627v66l39 10q61 16 73.5 33.5t12.5 89.5v735h-143z" />
<glyph unicode="&#xfb03;" horiz-adv-x="1992" d="M-6 934v57l143 84v17q0 213 144.5 331.5t398.5 118.5q207 0 274 -100q154 121 439 121q174 0 267 -57.5t93 -168.5q0 -135 -147 -135q-106 0 -150.5 38t-54.5 163q-2 37 -18.5 50t-53.5 13q-59 0 -97 -55t-38 -160v-176h377l266 27l27 -19q-8 -129 -9 -256v-628 q0 -72 12.5 -89.5t74.5 -33.5l38 -10v-66h-626v66l32 8q53 14 63.5 30.5t10.5 94.5v600q0 90 -17.5 112.5t-82.5 22.5h-166v-735q0 -74 10 -92.5t64 -32.5l32 -8v-66h-608v66l33 8q53 14 63.5 30.5t10.5 94.5v735h-267v-735q0 -74 10.5 -92.5t63.5 -32.5l33 -8v-66h-627v66 l39 10q61 16 73.5 33.5t12.5 89.5v735h-143zM532 1075h267v12q0 86 20 154q-57 6 -85.5 39t-33.5 109q-2 41 -11 52t-38 11q-59 0 -89 -42t-30 -155v-180z" />
<glyph unicode="&#xfb04;" horiz-adv-x="1998" d="M-6 934v57l143 84v17q0 213 144.5 331.5t398.5 118.5q201 0 272 -98q152 119 398 119q229 0 299 -99l186 86l27 -18q-6 -102 -7 -240v-1093q0 -72 13.5 -89.5t79.5 -33.5l39 -10v-66h-633v66l32 8q53 14 63.5 30.5t10.5 94.5v1058q-82 25 -90 152q-2 41 -12 52.5 t-33 11.5q-131 0 -131 -197v-201h219l-31 -141h-188v-735q0 -74 10 -92.5t64 -32.5l32 -8v-66h-608v66l33 8q53 14 63.5 30.5t10.5 94.5v735h-267v-735q0 -74 10.5 -92.5t63.5 -32.5l33 -8v-66h-627v66l39 10q61 16 73.5 33.5t12.5 89.5v735h-143zM532 1075h267v37 q0 66 16 131q-55 6 -82.5 39t-32.5 107q-2 41 -11 52t-38 11q-59 0 -89 -42t-30 -155v-180z" />
</font>
</defs>
</svg>
